<?xml version="1.0" encoding="UTF-8"?>
<svg version="1.1" xmlns="http://www.w3.org/2000/svg" width="500" height="500">
<path d="M0 0 C2.73795366 -0.00217643 5.47549662 -0.02036532 8.21337891 -0.03930664 C22.96063913 -0.08699557 37.48393888 0.9083395 51.95166016 3.93530273 C52.76803955 4.10304199 53.58441895 4.27078125 54.42553711 4.44360352 C75.19876289 8.8683184 95.32974975 15.30811234 114.13916016 25.18530273 C116.15879962 26.16692953 118.17959712 27.14617805 120.20166016 28.12280273 C126.7703334 31.41150103 132.95311197 35.23226707 139.13916016 39.18530273 C140.57001953 40.07475586 140.57001953 40.07475586 142.02978516 40.98217773 C170.30595068 59.06038192 196.86343573 85.39242869 214.13916016 114.18530273 C215.15328669 115.66907566 216.17401738 117.14835875 217.20166016 118.62280273 C223.00992875 127.30447404 227.06517226 137.08115996 231.42822266 146.54467773 C232.28018379 148.3910493 233.15147161 150.20861046 234.10131836 152.00683594 C237.1299613 157.74923734 239.13106134 163.68929428 241.07666016 169.87280273 C241.42293457 170.96625 241.76920898 172.05969727 242.12597656 173.1862793 C249.73231157 197.63850296 253.3267295 221.4652419 253.32446289 247.04614258 C253.32663932 249.78409624 253.34482821 252.5216392 253.36376953 255.25952148 C253.41178301 270.08107257 252.3967891 284.65048533 249.32666016 299.18530273 C249.15561768 300.0115918 248.9845752 300.83788086 248.80834961 301.68920898 C244.41247101 322.35713528 238.07086688 342.4998359 228.13916016 361.18530273 C227.15658027 363.20447868 226.1773248 365.22527629 225.20166016 367.24780273 C211.47499034 394.62851448 190.60158371 420.51184199 167.13916016 440.18530273 C166.57132812 440.66161133 166.00349609 441.13791992 165.41845703 441.62866211 C156.95391743 448.6982318 148.43912045 455.24479947 139.13916016 461.18530273 C137.63820552 462.22559338 136.13814741 463.26717922 134.63916016 464.31030273 C125.96648864 470.07654132 116.21610265 474.12385522 106.77978516 478.47436523 C104.93341359 479.32632637 103.11585243 480.19761419 101.31762695 481.14746094 C95.57522556 484.17610387 89.63516861 486.17720392 83.45166016 488.12280273 C82.35821289 488.46907715 81.26476562 488.81535156 80.13818359 489.17211914 C55.68595994 496.77845414 31.85922099 500.37287207 6.27832031 500.37060547 C3.54036665 500.3727819 0.80282369 500.39097079 -1.93505859 500.40991211 C-16.75660968 500.45792558 -31.32602244 499.44293167 -45.86083984 496.37280273 C-46.68712891 496.20176025 -47.51341797 496.03071777 -48.36474609 495.85449219 C-69.03267239 491.45861359 -89.17537301 485.11700946 -107.86083984 475.18530273 C-109.88001579 474.20272285 -111.9008134 473.22346738 -113.92333984 472.24780273 C-151.11087566 453.60471449 -186.41232075 421.93283455 -207.86083984 386.18530273 C-208.87496638 384.70152981 -209.89569707 383.22224671 -210.92333984 381.74780273 C-216.73160844 373.06613142 -220.78685194 363.2894455 -225.14990234 353.82592773 C-226.00186348 351.97955617 -226.8731513 350.16199501 -227.82299805 348.36376953 C-230.85164098 342.62136813 -232.85274103 336.68131119 -234.79833984 330.49780273 C-235.14461426 329.40435547 -235.49088867 328.3109082 -235.84765625 327.18432617 C-243.45399125 302.73210251 -247.04840918 278.90536357 -247.04614258 253.32446289 C-247.04831901 250.58650923 -247.06650789 247.84896627 -247.08544922 245.11108398 C-247.13346269 230.2895329 -246.11846878 215.72012014 -243.04833984 201.18530273 C-242.79177612 199.94586914 -242.79177612 199.94586914 -242.5300293 198.68139648 C-238.1341507 178.01347019 -231.79254657 157.87076957 -221.86083984 139.18530273 C-220.87825996 137.16612679 -219.89900449 135.14532918 -218.92333984 133.12280273 C-215.63464155 126.55412949 -211.81387551 120.37135092 -207.86083984 114.18530273 C-207.26787109 113.23139648 -206.67490234 112.27749023 -206.06396484 111.29467773 C-187.98576065 83.01851221 -161.65371389 56.46102716 -132.86083984 39.18530273 C-131.37706692 38.1711762 -129.89778382 37.15044551 -128.42333984 36.12280273 C-119.74166853 30.31453414 -109.96498261 26.25929064 -100.50146484 21.89624023 C-98.65509328 21.0442791 -96.83753212 20.17299128 -95.03930664 19.22314453 C-89.29690524 16.1945016 -83.3568483 14.19340155 -77.17333984 12.24780273 C-76.07989258 11.90152832 -74.98644531 11.55525391 -73.85986328 11.19848633 C-49.40763962 3.59215132 -25.58090068 -0.0022666 0 0 Z " fill="#040102" transform="translate(246.86083984375,-0.185302734375)"/>
<path d="M0 0 C-1.29410861 3.55879868 -2.93388435 6.72533217 -4.90234375 9.9609375 C-9.8343707 19.1229235 -13.16741107 29.34377549 -17 39 C-17.34208496 39.85883789 -17.68416992 40.71767578 -18.03662109 41.60253906 C-19.008316 44.04568464 -19.97388891 46.49115647 -20.9375 48.9375 C-21.23172852 49.67589111 -21.52595703 50.41428223 -21.82910156 51.17504883 C-23.44382573 55.29153538 -23.44382573 55.29153538 -24.30102539 59.61035156 C-25 62 -25 62 -26.95507812 63.17504883 C-27.80521484 63.43310303 -28.65535156 63.69115723 -29.53125 63.95703125 C-30.95328735 64.41275513 -30.95328735 64.41275513 -32.40405273 64.87768555 C-33.42571533 65.18617432 -34.44737793 65.49466309 -35.5 65.8125 C-48.83906176 70.13389622 -61.22346123 75.30919917 -73 83 C-73.66 83 -74.32 83 -75 83 C-75 83.66 -75 84.32 -75 85 C-75.9075 85.309375 -76.815 85.61875 -77.75 85.9375 C-83.82567884 88.52551736 -88.82333184 92.98218383 -94 97 C-95.35195662 98.00298587 -96.70581334 99.00342152 -98.0625 100 C-105.57319223 105.6525376 -112.74803537 111.52467975 -119.28515625 118.2890625 C-121 120 -121 120 -123.8125 122.1875 C-126.24475241 124.20279486 -127.42204899 126.29494113 -129 129 C-129.66 129 -130.32 129 -131 129 C-131.33 129.99 -131.66 130.98 -132 132 C-133.40116559 133.12776743 -134.80285081 134.25489483 -136.20703125 135.37890625 C-139.97948687 138.78973214 -142.90959576 142.98138248 -146 147 C-146.83999061 148.06341353 -147.68117824 149.12588241 -148.5234375 150.1875 C-153.52633761 156.52958876 -158.05999023 162.93646441 -162 170 C-162.77954892 171.36481131 -163.55953611 172.72937234 -164.33984375 174.09375 C-172.57509342 188.59324614 -179.51773666 203.24672599 -185 219 C-185.43183594 220.24007812 -185.86367187 221.48015625 -186.30859375 222.7578125 C-194.61676534 247.53173565 -197.15815061 272.22338592 -197.1875 298.1875 C-197.18867828 298.9843924 -197.18985657 299.78128479 -197.19107056 300.60232544 C-197.18914666 312.098178 -196.74285556 323.52890826 -196 335 C-199.38710361 333.30644819 -200.60760559 330.02587861 -201.921875 326.58984375 C-202.19515625 325.71457031 -202.4684375 324.83929688 -202.75 323.9375 C-203.96167233 320.12607096 -205.22552698 316.35467417 -206.63671875 312.61328125 C-211.15466441 300.50131543 -214.11848726 288.40070354 -216.48291016 275.69824219 C-216.81210796 273.98044515 -217.16359972 272.26666241 -217.54443359 270.55957031 C-220.3195941 258.01124087 -220.20838401 245.10654145 -220.1875 232.3125 C-220.18656342 231.56543793 -220.18562683 230.81837585 -220.18466187 230.04867554 C-220.11605066 204.72843679 -216.07254892 181.02928728 -208 157 C-207.69578125 155.98292969 -207.3915625 154.96585938 -207.078125 153.91796875 C-204.61212073 145.83856001 -200.94842153 138.56575812 -197.07324219 131.09521484 C-195.99395325 128.98819535 -194.94909085 126.86735701 -193.9140625 124.73828125 C-190.67991143 118.1014616 -187.46246963 111.70952872 -183.12890625 105.69921875 C-181.81586605 103.88356482 -181.81586605 103.88356482 -181 101 C-180.34 101 -179.68 101 -179 101 C-178.71125 100.4225 -178.4225 99.845 -178.125 99.25 C-177.75375 98.5075 -177.3825 97.765 -177 97 C-176.731875 96.34 -176.46375 95.68 -176.1875 95 C-175 93 -175 93 -172.75 91.3125 C-168.27233959 87.54719465 -164.85387965 82.56163896 -163 77 C-159.55555556 74 -159.55555556 74 -157 74 C-156.7525 73.4225 -156.505 72.845 -156.25 72.25 C-154.81700012 69.67060021 -153.21575324 67.93878408 -151 66 C-150.34 66 -149.68 66 -149 66 C-148.505 64.515 -148.505 64.515 -148 63 C-147.2575 62.566875 -146.515 62.13375 -145.75 61.6875 C-142.96377226 59.97776934 -141.44274623 58.14335851 -139.4375 55.60546875 C-136.71264534 52.56222074 -133.31054034 50.36114888 -130 48 C-128.70613324 47.02374238 -127.41445866 46.04457256 -126.125 45.0625 C-124.75206473 44.03889146 -123.37690729 43.01825931 -122 42 C-121.15824219 41.37351563 -120.31648438 40.74703125 -119.44921875 40.1015625 C-118.57910156 39.46992187 -117.70898438 38.83828125 -116.8125 38.1875 C-115.61560547 37.31158203 -115.61560547 37.31158203 -114.39453125 36.41796875 C-111.88384926 34.93121906 -109.87295025 34.3929257 -107 34 C-107 33.34 -107 32.68 -107 32 C-105.37750059 31.16180842 -103.75191503 30.3295884 -102.125 29.5 C-101.22007812 29.0359375 -100.31515625 28.571875 -99.3828125 28.09375 C-97 27 -97 27 -95 27 C-95 26.34 -95 25.68 -95 25 C-93.90042969 24.55269531 -92.80085938 24.10539062 -91.66796875 23.64453125 C-90.17443327 23.03396643 -88.68094632 22.42328287 -87.1875 21.8125 C-86.46884766 21.52052734 -85.75019531 21.22855469 -85.00976562 20.92773438 C-80.8599531 19.22759092 -76.78513637 17.43233019 -72.73046875 15.515625 C-66.68471322 12.7519563 -60.50084282 10.79087294 -54.125 8.9375 C-52.95042236 8.59388428 -51.77584473 8.25026855 -50.56567383 7.89624023 C-33.94913252 3.14753038 -17.33779276 -0.12748377 0 0 Z " fill="#A80000" transform="translate(237,17)"/>
<path d="M0 0 C4.99502677 0.86121151 6.75835771 3.42480849 10.12890625 7.0625 C14.4814444 11.53083338 19.53277603 15.05228973 24.625 18.625 C25.20556152 19.03395508 25.78612305 19.44291016 26.38427734 19.86425781 C39.06620738 28.72830254 52.17960013 35.9952218 66.625 41.625 C68.29198318 42.29087483 69.95874851 42.95729633 71.625 43.625 C71.625 44.285 71.625 44.945 71.625 45.625 C72.27726563 45.73457031 72.92953125 45.84414063 73.6015625 45.95703125 C74.47554687 46.11558594 75.34953125 46.27414062 76.25 46.4375 C77.10851562 46.58832031 77.96703125 46.73914063 78.8515625 46.89453125 C81.625 47.625 81.625 47.625 84.4375 49.046875 C88.21247656 50.91585849 91.94169838 51.98723848 96 53.0625 C96.78874512 53.27567871 97.57749023 53.48885742 98.39013672 53.70849609 C100.79964093 54.35563111 103.21182249 54.99171584 105.625 55.625 C106.33076172 55.81239746 107.03652344 55.99979492 107.76367188 56.19287109 C115.00522167 58.10760364 122.27820149 59.84895811 129.625 61.3125 C130.78 61.54324219 131.935 61.77398437 133.125 62.01171875 C145.72277553 63.98696904 158.71539069 63.83218976 171.4375 63.8125 C172.22758453 63.81156342 173.01766907 63.81062683 173.83169556 63.80966187 C185.53228457 63.77967891 197.06401108 63.60004179 208.625 61.625 C209.57310547 61.46370605 210.52121094 61.30241211 211.49804688 61.13623047 C230.61989012 57.77820433 248.86425065 53.07346658 266.62451172 45.16479492 C267.36846191 44.83455322 268.11241211 44.50431152 268.87890625 44.1640625 C269.53189697 43.86709473 270.1848877 43.57012695 270.85766602 43.26416016 C272.625 42.625 272.625 42.625 275.625 42.625 C275.625 41.965 275.625 41.305 275.625 40.625 C287.5390625 34.66796875 287.5390625 34.66796875 289.63769531 33.62255859 C291.44046414 32.71763065 293.23261529 31.79162702 295.0234375 30.86328125 C297.625 29.625 297.625 29.625 299.625 29.625 C299.625 28.965 299.625 28.305 299.625 27.625 C300.44291016 27.20541016 300.44291016 27.20541016 301.27734375 26.77734375 C306.56229506 23.96773716 311.16523463 20.79542321 315.77734375 16.98046875 C317.625 15.625 317.625 15.625 319.625 15.625 C319.625 14.965 319.625 14.305 319.625 13.625 C321.275 12.965 322.925 12.305 324.625 11.625 C315.72790744 31.2170432 293.45705656 54.11415386 275.625 65.625 C274.965 65.625 274.305 65.625 273.625 65.625 C273.625 66.285 273.625 66.945 273.625 67.625 C271.53515625 69.140625 271.53515625 69.140625 268.6875 70.875 C265.21530437 73.01648106 261.78902205 75.1747192 258.4375 77.5 C247.05998013 85.09848574 234.83392931 91.17213998 222.39599609 96.81298828 C220.94772055 97.47703081 219.51274814 98.1700205 218.08203125 98.87109375 C212.35808664 101.63104453 206.34639405 103.12379303 200.21484375 104.68359375 C196.68959535 105.60806042 193.27332937 106.67761997 189.84765625 107.9140625 C183.65479975 109.89490588 177.33911494 111.12337931 170.9375 112.1875 C169.86725586 112.37602539 169.86725586 112.37602539 168.77539062 112.56835938 C156.42058243 114.64014899 143.99246623 114.83212536 131.5 114.8125 C130.72676392 114.81156342 129.95352783 114.81062683 129.15686035 114.80966187 C99.35535358 114.73152856 69.03822851 109.88881276 41.625 97.625 C41.625 96.965 41.625 96.305 41.625 95.625 C40.24248047 95.55152344 40.24248047 95.55152344 38.83203125 95.4765625 C33.13988019 94.65542787 28.31825298 91.68316156 23.3125 89 C22.33087891 88.49082031 21.34925781 87.98164063 20.33789062 87.45703125 C14.60684833 84.43031268 9.26252309 81.12618172 4.00805664 77.33422852 C1.7033606 75.68120352 -0.64112682 74.11692851 -3.015625 72.56640625 C-14.94286471 64.64540196 -25.38264082 54.891657 -35.5 44.8125 C-36.37624023 43.94165771 -37.25248047 43.07081543 -38.15527344 42.17358398 C-50.32025492 29.8741376 -50.32025492 29.8741376 -53.44189453 23.41870117 C-54.22583673 21.44467809 -54.22583673 21.44467809 -56.3125 20.8125 C-59.55821355 18.94375583 -60.08270814 16.03195127 -61.375 12.625 C-62.02847074 11.28514993 -62.69203906 9.95006097 -63.375 8.625 C-62.17488281 8.58761719 -60.97476563 8.55023438 -59.73828125 8.51171875 C-47.12521603 8.0424846 -34.82692354 6.66033282 -22.375 4.625 C-21.14394531 4.42519531 -19.91289063 4.22539062 -18.64453125 4.01953125 C-14.16439379 3.59609427 -14.16439379 3.59609427 -10.375 1.625 C-6.91951062 1.00301191 -3.45322951 0.63948695 0 0 Z " fill="#A80000" transform="translate(118.375,368.375)"/>
<path d="M0 0 C7.15735181 -0.23522268 13.8394289 0.39673631 20.875 1.6875 C21.87096191 1.86684082 22.86692383 2.04618164 23.89306641 2.23095703 C45.01603177 6.14435608 64.92731519 11.85538111 83.95556641 21.92041016 C86.07145168 23.03773099 88.19687462 24.13514119 90.32421875 25.23046875 C108.91054878 34.85860668 108.91054878 34.85860668 116 40 C116 40.66 116 41.32 116 42 C116.70253906 42.22945312 117.40507812 42.45890625 118.12890625 42.6953125 C121.55446546 44.25196117 124.1387986 46.41672963 126.9375 48.875 C129.9205677 51.46930662 132.88047675 53.9210502 136.1875 56.10546875 C138.65070196 57.76470896 140.24228591 59.13967871 142.0625 61.4375 C144.55855175 64.48036721 147.18042113 67.24599273 150 70 C160.27495682 80.09015544 160.27495682 80.09015544 163 84 C163 84.66 163 85.32 163 86 C163.598125 86.04125 164.19625 86.0825 164.8125 86.125 C168.11509982 87.44603993 168.54301135 89.84319126 170 93 C171.31321858 94.6825613 172.64613064 96.34997172 174 98 C175.00856717 99.66149633 176.0075778 101.32881002 177 103 C178.10195145 104.68894739 179.20622367 106.37638228 180.3125 108.0625 C183.43617566 112.94858635 186.07309493 117.95143489 188.59765625 123.16796875 C189.8315499 125.65981526 191.15605073 128.04084033 192.5625 130.4375 C195.35855568 135.42601839 197.34311516 140.64643534 199.28027344 146.01855469 C200.06835906 148.1881961 200.88251475 150.34731435 201.6953125 152.5078125 C205.93651038 163.9836552 209.0355854 175.50486526 211.48291016 187.48925781 C211.81928025 189.12251091 212.17227721 190.7524574 212.54443359 192.37792969 C215.31923468 204.92463397 215.20522928 217.83323137 215.1875 230.625 C215.18709213 231.73918808 215.18709213 231.73918808 215.18667603 232.87588501 C215.15811811 249.89800293 214.00116951 266.40545151 210 283 C209.67370605 284.38783691 209.67370605 284.38783691 209.34082031 285.80371094 C205.12529373 303.45100781 199.16962609 319.79886491 191 336 C190.34 336 189.68 336 189 336 C187.67752711 334.23968136 186.44235859 332.41342875 185.25 330.5625 C184.53199219 329.46164062 183.81398438 328.36078125 183.07421875 327.2265625 C181.86638293 325.34770678 180.65993762 323.46795303 179.45703125 321.5859375 C175.40863193 315.34890774 170.75644089 309.70772907 166 304 C164.47276212 302.15110506 162.95153731 300.29722016 161.4375 298.4375 C160.77621094 297.63183594 160.11492187 296.82617188 159.43359375 295.99609375 C158 294 158 294 158 292 C157.443125 291.79375 156.88625 291.5875 156.3125 291.375 C152.92810839 289.36265904 150.37270337 287.7474802 149 284 C149.32896967 280.55495649 150.12344057 277.39547704 151.01123047 274.05175781 C154.30027183 261.11282263 154.36443878 247.76254345 154.3125 234.5 C154.3117598 233.19636505 154.3117598 233.19636505 154.31100464 231.86639404 C155.16055054 209.33790641 155.16055054 209.33790641 150 188 C149.72678965 186.33698049 149.48184568 184.66928888 149.25 183 C148.2431732 176.64392549 146.58354273 170.56974054 144.76464844 164.40820312 C143.76469124 160.97587661 142.96741078 157.7658404 142.47265625 154.2109375 C142.03688567 151.25057865 141.47275254 149.48774429 140 146.9375 C138.22467343 143.63770823 137.37673226 140.76732263 137 137 C136.34 137 135.68 137 135 137 C134.76667969 136.30519531 134.53335938 135.61039063 134.29296875 134.89453125 C126.70099282 113.72820968 114.89720782 93.38746929 100.28955078 76.31323242 C97.44748289 72.96485893 95.47843664 70.19409132 94 66 C92.6846659 65.29848848 91.34882408 64.63474075 90 64 C88.66666667 62.33333333 87.33333333 60.66666667 86 59 C84.19646099 57.32624419 82.3303531 55.73980904 80.45703125 54.14453125 C78.05063971 52.04419904 75.72879306 49.87646773 73.40722656 47.68383789 C66.95009859 41.61006622 60.27450807 36.08479527 53 31 C52.3493457 30.54125488 51.69869141 30.08250977 51.02832031 29.60986328 C39.82006359 21.75890655 28.23585755 15.10952887 16 9 C15.28295898 8.64067383 14.56591797 8.28134766 13.82714844 7.91113281 C11.88562709 6.93901822 9.94303527 5.96908411 8 5 C5.33333333 3.66666667 2.66666667 2.33333333 0 1 C0 0.67 0 0.34 0 0 Z " fill="#A80000" transform="translate(268,18)"/>
<path d="M0 0 C-1.23364594 5.81288604 -2.63128201 11.57344641 -4.09375 17.33203125 C-4.28686768 18.09425995 -4.47998535 18.85648865 -4.67895508 19.64181519 C-5.48763663 22.83138095 -6.2971502 26.02070798 -7.11376953 29.20825195 C-9.47482612 38.43568524 -11.59565667 47.56909193 -13 57 C-13.92844453 62.19241202 -15.06501993 67.28359827 -16.41503906 72.3840332 C-18.21299604 79.23559356 -19.59089542 86.05327243 -20.625 93.0625 C-20.81618408 94.32827881 -20.81618408 94.32827881 -21.01123047 95.61962891 C-21.57955205 99.52240564 -22.05705715 103.38556746 -22.27734375 107.32421875 C-22.95851448 116.70198015 -22.95851448 116.70198015 -25.85546875 120.3125 C-28.4634106 122.42267808 -31.17420557 124.19221613 -34 126 C-36.3721068 127.76389199 -38.68519904 129.59934031 -41 131.4375 C-41.60013916 131.90687988 -42.20027832 132.37625977 -42.81860352 132.85986328 C-47.23344441 136.32759439 -51.41340874 139.99752785 -55.55078125 143.79296875 C-67.49205718 154.55344865 -67.49205718 154.55344865 -73 157 C-73 157.66 -73 158.32 -73 159 C-73.66 159 -74.32 159 -75 159 C-75 159.66 -75 160.32 -75 161 C-76.3984375 162.375 -76.3984375 162.375 -78.375 164 C-82.82921409 167.76222012 -86.85683532 171.86058282 -90.8984375 176.05859375 C-93 178 -93 178 -95 178 C-95.33 178.99 -95.66 179.98 -96 181 C-98.5625 182.1875 -98.5625 182.1875 -101 183 C-101.65035371 180.48025747 -102.29537493 177.95934065 -102.9375 175.4375 C-103.21110352 174.38079102 -103.21110352 174.38079102 -103.49023438 173.30273438 C-111.50278921 141.68956347 -105.62097503 100.83655841 -89.45703125 72.2734375 C-88.97621094 71.52320313 -88.49539062 70.77296875 -88 70 C-87.56300781 69.24460937 -87.12601563 68.48921875 -86.67578125 67.7109375 C-83.37834394 62.06088732 -79.75311794 56.77881824 -75.83203125 51.54296875 C-73.94718777 49.02715408 -73.94718777 49.02715408 -72.44921875 46.23828125 C-71 44 -71 44 -68 43 C-67.71125 42.4225 -67.4225 41.845 -67.125 41.25 C-65.61956289 38.23912578 -63.4444421 36.24817303 -61 34 C-60.33613281 33.38898438 -59.67226562 32.77796875 -58.98828125 32.1484375 C-51.76631771 25.61968163 -44.54316398 19.7082797 -36 15 C-35.30165039 14.61247559 -34.60330078 14.22495117 -33.88378906 13.82568359 C-8.76117514 0 -8.76117514 0 0 0 Z " fill="#BA0000" transform="translate(207,93)"/>
<path d="M0 0 C15.0993462 6.16459096 30.43464059 11.62859831 45.875 16.875 C46.86725586 17.21724609 47.85951172 17.55949219 48.88183594 17.91210938 C54.29496092 19.72695701 59.30650145 20.95967684 65 21.4375 C65 22.0975 65 22.7575 65 23.4375 C65.70511719 23.57027344 66.41023437 23.70304687 67.13671875 23.83984375 C70.06726299 24.45153989 72.9278361 25.2006353 75.8125 26 C76.78832031 26.26941406 77.76414062 26.53882813 78.76953125 26.81640625 C79.50558594 27.02136719 80.24164063 27.22632813 81 27.4375 C78.52745909 32.55609346 75.76494436 36.17661758 70.8828125 39.21875 C68.44782506 40.79492445 66.14322268 42.52353876 63.8125 44.25 C58.36085539 48.23303831 52.77142832 51.93460998 47 55.4375 C45.90429688 56.10265625 44.80859375 56.7678125 43.6796875 57.453125 C39.89510465 59.59785877 35.98738302 61.04876827 31.875 62.4375 C31.12927734 62.6938623 30.38355469 62.95022461 29.61523438 63.21435547 C27.41346651 63.96572998 25.20787342 64.70428447 23 65.4375 C21.87851562 65.81132812 20.75703125 66.18515625 19.6015625 66.5703125 C16.41597433 67.58937975 13.21673925 68.52135275 10 69.4375 C8.79899658 69.78232422 7.59799316 70.12714844 6.3605957 70.48242188 C-4.07380697 73.29564639 -13.93322657 74.00583835 -24.71313477 73.84912109 C-27.32803071 73.8122812 -29.94150998 73.80810599 -32.55664062 73.80859375 C-45.86824843 73.75539202 -57.83093007 72.21444774 -70.5 67.9375 C-71.52593262 67.59291748 -72.55186523 67.24833496 -73.60888672 66.89331055 C-80.67056581 64.43790338 -87.4338956 61.58300324 -94.125 58.25 C-94.93517578 57.84652344 -95.74535156 57.44304687 -96.58007812 57.02734375 C-101.24766898 54.60447216 -105.06092345 51.91593492 -109 48.4375 C-111.45665535 46.879621 -113.95170061 45.46406467 -116.5 44.0625 C-119.41624083 42.16694346 -121.60843787 39.95493382 -124 37.4375 C-124.598125 36.880625 -125.19625 36.32375 -125.8125 35.75 C-127 34.4375 -127 34.4375 -127 32.4375 C-126.11030518 32.19628418 -126.11030518 32.19628418 -125.20263672 31.95019531 C-106.5987745 27.08859065 -106.5987745 27.08859065 -88.2109375 21.5 C-85.68222876 20.66324966 -83.15774223 19.88532176 -80.6015625 19.140625 C-71.23078681 16.41019272 -62.0441193 13.46248343 -52.94140625 9.94140625 C-48.74455161 8.32073408 -44.50042977 6.84806631 -40.25 5.375 C-34.24882179 3.284434 -28.35933161 1.02007069 -22.515625 -1.484375 C-21.27039063 -2.01804687 -21.27039063 -2.01804687 -20 -2.5625 C-19.19046875 -2.95953125 -18.3809375 -3.3565625 -17.546875 -3.765625 C-11.45552746 -5.67150674 -5.58050671 -2.33234873 0 0 Z " fill="#BA0000" transform="translate(263,332.5625)"/>
<path d="M0 0 C5.9879328 0.53331081 10.99656985 1.82523834 16.5625 4.0625 C17.73159912 4.52668335 17.73159912 4.52668335 18.92431641 5.00024414 C39.64121011 13.42820527 57.1564256 26.09679325 73 41.75 C73.52779053 42.26844482 74.05558105 42.78688965 74.59936523 43.32104492 C84 52.79990548 84 52.79990548 84 57 C84.66 57 85.32 57 86 57 C87.53728117 59.09601794 88.93808759 61.17515106 90.3125 63.375 C90.71766846 64.01550293 91.12283691 64.65600586 91.5402832 65.31591797 C94.22586294 69.61650746 96.67463757 73.96399557 98.828125 78.55859375 C99.98071915 81.03730264 99.98071915 81.03730264 101.421875 83.47265625 C116.61056093 110.67919419 116.06026067 145.20704028 111 175 C110.67 175.99 110.34 176.98 110 178 C108 178 108 178 105.625 175.8125 C103 173 103 173 100.875 170.25 C99.12568403 167.74947545 99.12568403 167.74947545 96 167 C95.08567692 165.57771966 94.17352031 164.15399094 93.2734375 162.72265625 C91.31569102 160.07429368 88.84137678 158.15130774 86.328125 156.04296875 C83.64579464 153.68917885 81.18032659 151.17836666 78.6875 148.625 C74.33754475 144.19611866 69.7417278 140.24742741 64.88671875 136.3828125 C61.61736717 133.68415964 58.52817402 130.83664438 55.4375 127.9375 C49.36288154 122.2553679 43.02715636 117.03539397 36.3828125 112.02734375 C35.55523437 111.39957031 34.72765625 110.77179688 33.875 110.125 C33.12992187 109.57070312 32.38484375 109.01640625 31.6171875 108.4453125 C31.08351563 107.96835938 30.54984375 107.49140625 30 107 C30 106.34 30 105.68 30 105 C29.29875 104.773125 28.5975 104.54625 27.875 104.3125 C21.17750602 101.2549484 21.17750602 101.2549484 19 98 C18.39111328 95.23974609 18.39111328 95.23974609 18.0078125 91.8984375 C17.84998291 90.64675781 17.69215332 89.39507812 17.52954102 88.10546875 C17.44608429 87.43708984 17.36262756 86.76871094 17.27664185 86.08007812 C16.80126245 82.50568652 16.19964459 78.95334977 15.59765625 75.3984375 C15.4731459 74.66197998 15.34863556 73.92552246 15.22035217 73.16674805 C14.9646731 71.660807 14.70803016 70.1550293 14.45043945 68.64941406 C14.06185412 66.3712133 13.68027661 64.09190515 13.29882812 61.8125 C12.04299693 54.40083635 10.62519429 47.11940921 8.71655273 39.84228516 C7.17785823 33.73888434 6.08425486 27.5343559 4.89453125 21.35546875 C3.49013462 14.17247197 1.84206024 7.08338629 0 0 Z " fill="#BA0000" transform="translate(298,113)"/>
<path d="M0 0 C8.52990149 6.29900418 15.1679254 13.4165308 18.72265625 23.5 C19.0784375 24.38042969 19.43421875 25.26085937 19.80078125 26.16796875 C21.00970392 30.53750703 21.10445818 34.61021856 21.09765625 39.125 C21.09894531 40.00639648 21.10023438 40.88779297 21.1015625 41.79589844 C20.98548002 48.99565048 19.72633282 54.90263895 16.72265625 61.5 C16.06265625 61.5 15.40265625 61.5 14.72265625 61.5 C14.55765625 62.325 14.39265625 63.15 14.22265625 64 C11.28776823 70.84807206 5.11434195 75.84760817 -1.27734375 79.5 C-1.93734375 79.5 -2.59734375 79.5 -3.27734375 79.5 C-3.27734375 80.16 -3.27734375 80.82 -3.27734375 81.5 C-14.98882366 87.64372717 -30.35090792 87.48968713 -42.83984375 83.6875 C-50.40874095 80.51954303 -55.7694853 75.42766473 -61.27734375 69.5 C-61.91671875 68.81679688 -62.55609375 68.13359375 -63.21484375 67.4296875 C-70.68158338 58.50693364 -72.97809072 45.8634644 -72.27734375 34.5 C-70.8613344 21.68627602 -63.36610621 9.34418873 -53.46484375 1.3125 C-37.63793071 -9.67961631 -16.22870301 -10.68923149 0 0 Z " fill="#9E0000" transform="translate(275.27734375,210.5)"/>
<path d="M0 0 C7.42763296 -0.27524854 14.33029541 0.51806946 21.625 1.875 C22.60984375 2.04902344 23.5946875 2.22304688 24.609375 2.40234375 C30.1373426 3.39737792 35.56895014 4.56806049 41 6 C40.401875 6.515625 39.80375 7.03125 39.1875 7.5625 C36.4926464 10.56533687 35.44279381 13.24873609 34 17 C28.5384282 15.35441241 23.51102064 13.00803598 18.375 10.5625 C17.529375 10.16740234 16.68375 9.77230469 15.8125 9.36523438 C14.58660156 8.78418945 14.58660156 8.78418945 13.3359375 8.19140625 C12.59907715 7.84279541 11.8622168 7.49418457 11.10302734 7.13500977 C8.88886583 5.94002058 7.00401107 4.51523416 5 3 C3.35202764 2.28837557 1.68834592 1.60968047 0 1 C0 0.67 0 0.34 0 0 Z " fill="#9C0203" transform="translate(268,18)"/>
<path d="M0 0 C0.66 0 1.32 0 2 0 C1.54364214 2.47954436 1.08495239 4.95862197 0.625 7.4375 C0.49867187 8.12521484 0.37234375 8.81292969 0.2421875 9.52148438 C-0.4419891 13.19893361 -1.18587039 16.8482146 -2.03125 20.4921875 C-5.30953396 35.14388518 -5.18859551 50.24998535 -5.1875 65.1875 C-5.18885956 66.38093521 -5.18885956 66.38093521 -5.19024658 67.59848022 C-5.18876675 79.09570362 -4.74294504 90.52752652 -4 102 C-7.55465712 100.22267144 -8.73620228 96.67586795 -10.1328125 93.09765625 C-10.46023437 92.09605469 -10.78765625 91.09445312 -11.125 90.0625 C-11.45757812 89.06347656 -11.79015625 88.06445312 -12.1328125 87.03515625 C-12.99089337 84.0318732 -13.54895542 81.08827463 -14 78 C-13.34 78 -12.68 78 -12 78 C-11.71125 79.134375 -11.4225 80.26875 -11.125 81.4375 C-10.75375 82.613125 -10.3825 83.78875 -10 85 C-9.34 85.33 -8.68 85.66 -8 86 C-8.00523682 84.77369873 -8.01047363 83.54739746 -8.01586914 82.28393555 C-8.03395561 77.7385328 -8.0454454 73.19313324 -8.05493164 68.64770508 C-8.0599635 66.67960068 -8.06678958 64.71150003 -8.07543945 62.7434082 C-8.08755517 59.91616899 -8.09323976 57.08897916 -8.09765625 54.26171875 C-8.10281754 53.38037766 -8.10797882 52.49903656 -8.11329651 51.59098816 C-8.11337204 50.77036392 -8.11344757 49.94973969 -8.11352539 49.10424805 C-8.115746 48.38254929 -8.11796661 47.66085052 -8.12025452 46.9172821 C-8 45 -8 45 -7 42 C-6.81112463 40.53000404 -6.66016091 39.05492419 -6.53515625 37.578125 C-6.45716797 36.71703125 -6.37917969 35.8559375 -6.29882812 34.96875 C-6.1426532 33.17209305 -5.98896206 31.37521827 -5.83789062 29.578125 C-5.36948284 24.45991314 -4.52177559 19.90418367 -3 15 C-2.79140543 13.67258 -2.61540899 12.33874431 -2.5 11 C-2.08724708 7.15764555 -1.15182375 3.68583601 0 0 Z " fill="#940508" transform="translate(45,250)"/>
<path d="M0 0 C0.33 0 0.66 0 1 0 C4.16571499 13.3390321 4.20640594 26.98426791 4.1875 40.625 C4.18722809 41.36779205 4.18695618 42.11058411 4.18667603 42.87588501 C4.13564874 73.29100457 -0.3352625 105.47030907 -14 133 C-15.55280987 128.3415704 -13.66425173 124.49347968 -12 120 C-11.46375 119.113125 -10.9275 118.22625 -10.375 117.3125 C-8.56487995 114.26820718 -8.47428842 111.49787711 -8 108 C-7.52949219 106.79988281 -7.05898438 105.59976563 -6.57421875 104.36328125 C-4.81910212 99.8212744 -4.02789529 95.30057601 -3.3125 90.5 C-3.18294922 89.67757812 -3.05339844 88.85515625 -2.91992188 88.0078125 C-2.60574306 86.00637712 -2.30178543 84.00334158 -2 82 C-1.34 82 -0.68 82 0 82 C-0.020625 80.948125 -0.04125 79.89625 -0.0625 78.8125 C0 75 0 75 0.49581909 72.59631348 C1.02313392 69.8808703 1.12699191 67.41077123 1.12939453 64.64648438 C1.13254669 63.60190063 1.13569885 62.55731689 1.13894653 61.4810791 C1.1369223 60.3632605 1.13489807 59.24544189 1.1328125 58.09375 C1.13376923 56.93629272 1.13472595 55.77883545 1.13571167 54.58630371 C1.1363914 52.14200791 1.13455157 49.69771029 1.13037109 47.25341797 C1.12501997 43.51395612 1.13032315 39.77461437 1.13671875 36.03515625 C1.13605793 33.6588539 1.13477669 31.28255163 1.1328125 28.90625 C1.13483673 27.7884314 1.13686096 26.67061279 1.13894653 25.5189209 C1.13579437 24.47433716 1.13264221 23.42975342 1.12939453 22.35351562 C1.12859894 21.4381604 1.12780334 20.52280518 1.12698364 19.57971191 C0.99804631 16.96031025 0.54064692 14.56200181 0 12 C-0.0659735 9.89676466 -0.08562245 7.79164276 -0.0625 5.6875 C-0.05347656 4.61886719 -0.04445313 3.55023438 -0.03515625 2.44921875 C-0.02355469 1.64097656 -0.01195312 0.83273438 0 0 Z " fill="#840807" transform="translate(479,208)"/>
<path d="M0 0 C-6.93907123 4.62604749 -16.84053874 5.21969661 -25 6.625 C-26.04716187 6.80953735 -26.04716187 6.80953735 -27.11547852 6.99780273 C-39.3796349 9.03037309 -51.72754923 9.2069761 -64.125 9.1875 C-64.89823608 9.18656342 -65.67147217 9.18562683 -66.46813965 9.18466187 C-86.37687045 9.13246534 -104.60024872 6.57973354 -124 2 C-124 1.67 -124 1.34 -124 1 C-117.84765625 0.90234375 -117.84765625 0.90234375 -116 1 C-115.67 1.33 -115.34 1.66 -115 2 C-113.31816052 2.23287008 -111.6287584 2.41264166 -109.9375 2.5625 C-108.55884766 2.68818359 -108.55884766 2.68818359 -107.15234375 2.81640625 C-106.08693359 2.90728516 -106.08693359 2.90728516 -105 3 C-105 3.66 -105 4.32 -105 5 C-104.26394531 4.98839844 -103.52789062 4.97679687 -102.76953125 4.96484375 C-101.79371094 4.95582031 -100.81789062 4.94679688 -99.8125 4.9375 C-98.84957031 4.92589844 -97.88664062 4.91429687 -96.89453125 4.90234375 C-94 5 -94 5 -91.64518738 5.49801636 C-88.95641876 6.00827052 -86.51658001 6.12694735 -83.7824707 6.12939453 C-82.76824539 6.13254669 -81.75402008 6.13569885 -80.70906067 6.13894653 C-79.62557846 6.1369223 -78.54209625 6.13489807 -77.42578125 6.1328125 C-76.30560104 6.13376923 -75.18542084 6.13472595 -74.03129578 6.13571167 C-71.66856836 6.13639113 -69.30583905 6.13455319 -66.94311523 6.13037109 C-63.3155502 6.12500451 -59.68810814 6.13033177 -56.06054688 6.13671875 C-53.76562473 6.13605822 -51.47070265 6.13477759 -49.17578125 6.1328125 C-48.08622635 6.13483673 -46.99667145 6.13686096 -45.87409973 6.13894653 C-44.8693309 6.13579437 -43.86456207 6.13264221 -42.8293457 6.12939453 C-41.94285843 6.12859894 -41.05637115 6.12780334 -40.14302063 6.12698364 C-37.94799753 6.13796731 -37.94799753 6.13796731 -36 5 C-33.60414255 4.67503783 -31.21519533 4.38799279 -28.8125 4.125 C-21.84295576 3.32018075 -15.05843847 2.08537873 -8.20703125 0.5859375 C-5.37299158 0.06814706 -2.8685543 -0.11884782 0 0 Z " fill="#840808" transform="translate(314,474)"/>
<path d="M0 0 C0.33 0 0.66 0 1 0 C0.38295065 9.45059795 -1.0032752 18.23300056 -3.41723633 27.3840332 C-5.20808702 34.23733559 -6.59086313 41.05305359 -7.625 48.0625 C-7.75245605 48.90635254 -7.87991211 49.75020508 -8.01123047 50.61962891 C-8.57955205 54.52240564 -9.05705715 58.38556746 -9.27734375 62.32421875 C-9.95851448 71.70198015 -9.95851448 71.70198015 -12.85546875 75.3125 C-15.46304025 77.42237841 -18.17802481 79.18689889 -21 81 C-23.49584399 82.89077009 -25.93246165 84.85360727 -28.375 86.8125 C-31.88665668 89.58185527 -35.40711944 92.33631269 -39 95 C-38.6655974 91.90677596 -38.4404882 90.41112232 -36.125 88.25 C-34 87 -34 87 -31 86 C-29.7315625 84.7315625 -29.7315625 84.7315625 -28.4375 83.4375 C-27.633125 82.633125 -26.82875 81.82875 -26 81 C-25.34 81 -24.68 81 -24 81 C-24 80.34 -24 79.68 -24 79 C-22.5459375 78.5978125 -22.5459375 78.5978125 -21.0625 78.1875 C-19.5465625 77.5996875 -19.5465625 77.5996875 -18 77 C-17.505 75.515 -17.505 75.515 -17 74 C-16.01 73.505 -16.01 73.505 -15 73 C-12.58684291 66.53412456 -11.56101591 59.84439404 -11 53 C-10.34 53 -9.68 53 -9 53 C-8.92652344 51.38931641 -8.92652344 51.38931641 -8.8515625 49.74609375 C-8.77646602 48.30987358 -8.70092124 46.87367681 -8.625 45.4375 C-8.57859375 44.38079102 -8.57859375 44.38079102 -8.53125 43.30273438 C-8.27138703 38.60354567 -7.3534654 34.53116678 -6 30 C-5.801213 28.21343331 -5.65146073 26.42038932 -5.5625 24.625 C-5.22184192 20.16602903 -4.30950297 16.45880216 -2.765625 12.28125 C-1.42406278 8.28394216 -0.73549037 4.14470457 0 0 Z " fill="#8B0808" transform="translate(194,138)"/>
<path d="M0 0 C0.33 0 0.66 0 1 0 C0.93148331 0.77905197 0.86296661 1.55810394 0.79237366 2.36076355 C0.11663133 10.49300943 -0.20083786 18.58048996 -0.31640625 26.73828125 C-0.33718735 27.98506149 -0.35796844 29.23184174 -0.37937927 30.5164032 C-0.44408492 34.4483865 -0.50338744 38.38042905 -0.5625 42.3125 C-0.60531852 44.99936215 -0.64932389 47.68620443 -0.69335938 50.37304688 C-0.79968371 56.91530433 -0.90158761 63.457619 -1 70 C-0.34 70 0.32 70 1 70 C1.04390869 70.64904297 1.08781738 71.29808594 1.13305664 71.96679688 C1.70353649 79.28243841 2.91142197 86.32787818 4.4375 93.5 C4.65470703 94.56992187 4.87191406 95.63984375 5.09570312 96.7421875 C5.31033203 97.76570313 5.52496094 98.78921875 5.74609375 99.84375 C5.93872803 100.76349609 6.1313623 101.68324219 6.32983398 102.63085938 C6.93594589 105.23680375 6.93594589 105.23680375 9 108 C9.07905064 110.33199388 9.08798769 112.66832622 9 115 C7.24957753 112.37436629 6.57447176 110.94705621 5.81640625 108.0078125 C5.61249268 107.22752686 5.4085791 106.44724121 5.19848633 105.64331055 C4.8836731 104.39674683 4.8836731 104.39674683 4.5625 103.125 C4.34295654 102.26366455 4.12341309 101.4023291 3.8972168 100.51489258 C3.45935777 98.78909904 3.02416611 97.06262631 2.59179688 95.33544922 C2.1083987 93.42778133 1.59723252 91.52716808 1.078125 89.62890625 C-6.01343549 62.38428863 -5.89865038 27.4738941 0 0 Z " fill="#850807" transform="translate(20,208)"/>
<path d="M0 0 C0.33 0 0.66 0 1 0 C0.90967107 2.02149913 0.80160313 4.04220336 0.6875 6.0625 C0.62949219 7.18785156 0.57148437 8.31320312 0.51171875 9.47265625 C0.18780194 13.33417622 -0.66019069 16.99849114 -1.51367188 20.77539062 C-3.21769973 28.88730903 -3.38703739 36.86040909 -3.29296875 45.12109375 C-3.28735306 46.60180729 -3.28309234 48.08252651 -3.28010559 49.56324768 C-3.26881162 53.40520424 -3.23948385 57.24680446 -3.20599365 61.08862305 C-3.17495343 65.03103824 -3.16152877 68.97351269 -3.14648438 72.91601562 C-3.11459411 80.61083714 -3.06359279 88.3053681 -3 96 C-3.66 96 -4.32 96 -5 96 C-7.28960981 64.19077799 -8.36627859 30.98772117 0 0 Z " fill="#240000" transform="translate(45,258)"/>
<path d="M0 0 C1.05960937 0.45503906 2.11921875 0.91007812 3.2109375 1.37890625 C4.00757813 1.72824219 4.80421875 2.07757813 5.625 2.4375 C3.05600198 3.38459604 1.88838201 3.52790175 -0.7421875 2.625 C-1.56976563 2.233125 -2.39734375 1.84125 -3.25 1.4375 C-9.10547067 -1.04014425 -12.06976495 -0.49268257 -17.9375 1.875 C-19.071875 2.390625 -20.20625 2.90625 -21.375 3.4375 C-22.7671875 3.9634375 -22.7671875 3.9634375 -24.1875 4.5 C-26.52781179 5.342718 -26.52781179 5.342718 -28.375 7.4375 C-30.37395076 7.66688779 -32.37327324 7.89390906 -34.375 8.09765625 C-37.1281441 8.56547566 -38.99013879 9.9954909 -41.375 11.4375 C-44.12122955 12.26865216 -46.88831436 12.97286552 -49.66796875 13.68359375 C-51.92842064 14.31312797 -53.93648299 15.02740831 -56.0625 16 C-61.1161435 18.19309058 -65.91662819 20.1318948 -71.375 18.4375 C-70.43785156 18.10878906 -69.50070313 17.78007812 -68.53515625 17.44140625 C-63.81218572 15.78166203 -59.09306863 14.11112253 -54.375 12.4375 C-53.3634082 12.07881836 -52.35181641 11.72013672 -51.30957031 11.35058594 C-48.05917171 10.19587812 -44.81065247 9.03600966 -41.5625 7.875 C-40.53842041 7.51156494 -39.51434082 7.14812988 -38.45922852 6.77368164 C-32.24649955 4.5468345 -26.13654421 2.14588082 -20.05981445 -0.42944336 C-19.17382568 -0.80335205 -18.28783691 -1.17726074 -17.375 -1.5625 C-16.49561768 -1.94535156 -15.61623535 -2.32820313 -14.71020508 -2.72265625 C-9.57440329 -4.56971931 -4.75140442 -2.05894192 0 0 Z " fill="#8D0608" transform="translate(260.375,331.5625)"/>
<path d="M0 0 C1.58367747 0.14204741 3.16693318 0.28880153 4.75 0.4375 C5.63171875 0.51871094 6.5134375 0.59992188 7.421875 0.68359375 C10 1 10 1 11.71411133 1.48535156 C23.1049597 4.04990442 35.92381559 3.19872282 47.5625 3.1875 C48.33783081 3.1882251 49.11316162 3.1889502 49.9119873 3.18969727 C63.02502426 3.18834992 75.96670478 2.51424177 89 1 C85.39882041 3.40078639 82.96913314 3.52567467 78.6875 4 C73.34203362 4.57938377 73.34203362 4.57938377 68.19848633 6.03442383 C64.60659419 7.11876345 61.80492208 7.15673253 58.0625 7.01171875 C56.75539063 6.96466797 55.44828125 6.91761719 54.1015625 6.86914062 C53.42770508 6.83925049 52.75384766 6.80936035 52.05957031 6.77856445 C50.00613744 6.68777137 47.95260828 6.61297546 45.8984375 6.54101562 C40.16600086 6.31771065 34.65511655 5.97541952 29 5 C27.43302783 4.87678889 25.86352449 4.7814988 24.29296875 4.71875 C23.45958984 4.68136719 22.62621094 4.64398438 21.76757812 4.60546875 C20.02802719 4.53435917 18.28844279 4.46406433 16.54882812 4.39453125 C15.72189453 4.35714844 14.89496094 4.31976563 14.04296875 4.28125 C13.29039795 4.25095703 12.53782715 4.22066406 11.76245117 4.18945312 C10 4 10 4 9 3 C7.48530552 2.76807135 5.96245438 2.58784762 4.4375 2.4375 C3.61121094 2.35371094 2.78492188 2.26992188 1.93359375 2.18359375 C1.29550781 2.12300781 0.65742188 2.06242187 0 2 C0 1.34 0 0.68 0 0 Z " fill="#8D0909" transform="translate(242,429)"/>
<path d="M0 0 C0.33 0 0.66 0 1 0 C0.9278125 0.97710937 0.855625 1.95421875 0.78125 2.9609375 C-0.808278 26.89153613 -0.44704056 51.07215082 1 75 C-1.00257868 71.63534351 -1.33644992 68.81882805 -1.5625 64.9375 C-1.76051635 61.66820969 -1.96130434 59.11608697 -3 56 C-3.09723703 53.14655181 -3.13994814 50.3182297 -3.1328125 47.46484375 C-3.13376923 46.63038223 -3.13472595 45.79592072 -3.13571167 44.93617249 C-3.1363918 43.17351201 -3.13454915 41.41084902 -3.13037109 39.64819336 C-3.12501375 36.94444178 -3.13032517 34.24085582 -3.13671875 31.53710938 C-3.13605807 29.82552047 -3.13477712 28.11393166 -3.1328125 26.40234375 C-3.13483673 25.59087387 -3.13686096 24.77940399 -3.13894653 23.94334412 C-3.11496425 18.22992849 -3.11496425 18.22992849 -2 16 C-1.73634236 12.77385576 -1.5556966 9.55452624 -1.39453125 6.32226562 C-1.10079169 1.10079169 -1.10079169 1.10079169 0 0 Z " fill="#260000" transform="translate(18,213)"/>
<path d="M0 0 C-9.64014079 6.42676053 -26.75855036 4.24560665 -38 4.125 C-39.66145283 4.11493256 -41.32291169 4.10581347 -42.984375 4.09765625 C-46.98973681 4.07598111 -50.99479835 4.04166743 -55 4 C-55 3.34 -55 2.68 -55 2 C-53.55717651 1.96241577 -53.55717651 1.96241577 -52.08520508 1.92407227 C-48.45262499 1.82856924 -44.82017417 1.72872201 -41.18774414 1.62768555 C-39.62755394 1.58486812 -38.06733265 1.54316653 -36.50708008 1.50268555 C-27.87667334 1.27797872 -19.29174388 0.9613105 -10.6875 0.20507812 C-7.1107118 -0.06785993 -3.58506306 -0.07029535 0 0 Z " fill="#260000" transform="translate(288,481)"/>
<path d="M0 0 C0.99 0.495 0.99 0.495 2 1 C2 4.63 2 8.26 2 12 C2.66 12 3.32 12 4 12 C4.06058594 12.62648437 4.12117188 13.25296875 4.18359375 13.8984375 C4.26738281 14.71570313 4.35117187 15.53296875 4.4375 16.375 C4.51871094 17.18710938 4.59992188 17.99921875 4.68359375 18.8359375 C4.89090114 21.04272805 4.89090114 21.04272805 6 23 C6.039992 24.99960012 6.04346799 27.00047242 6 29 C6.66 29 7.32 29 8 29 C8 29.99 8 30.98 8 32 C8.99 32 9.98 32 11 32 C12.6875 33.375 12.6875 33.375 14 35 C14 35.66 14 36.32 14 37 C14.66 37 15.32 37 16 37 C16 37.66 16 38.32 16 39 C16.61875 39.268125 17.2375 39.53625 17.875 39.8125 C20 41 20 41 22 44 C19.50638429 42.79618552 17.31856917 41.54571278 15 40 C15 39.34 15 38.68 15 38 C14.29875 37.773125 13.5975 37.54625 12.875 37.3125 C6.16351565 34.24856149 6.16351565 34.24856149 4 31 C2.85980949 26.38016074 2.47570518 21.7266876 2 17 C1.64693983 14.9960106 1.27406742 12.99533711 0.875 11 C0.17090876 7.27601744 -0.20571976 3.80581555 0 0 Z " fill="#870709" transform="translate(313,180)"/>
<path d="M0 0 C0.33 0 0.66 0 1 0 C1.02505615 1.05687012 1.0501123 2.11374023 1.07592773 3.20263672 C1.17187252 7.21735768 1.27159365 11.23197829 1.37231445 15.24658203 C1.41497165 16.96660983 1.45667619 18.68666159 1.49731445 20.40673828 C1.77887135 32.28774425 2.26927104 44.13798264 3 56 C0.12673954 54.56336977 -0.57031657 52.85936686 -2 50 C-2.6875 46.1875 -2.6875 46.1875 -3 43 C-2.34 43.33 -1.68 43.66 -1 44 C-0.67 29.48 -0.34 14.96 0 0 Z " fill="#75090B" transform="translate(38,296)"/>
<path d="M0 0 C9.72573482 14.58860223 8.19678557 37.16390082 8 54 C7.67 54 7.34 54 7 54 C6.91435791 53.08299316 6.82871582 52.16598633 6.74047852 51.22119141 C6.41830814 47.77325053 6.09584533 44.32533724 5.77319336 40.87744141 C5.63440683 39.39372817 5.49573215 37.91000446 5.35717773 36.42626953 C4.59653107 28.28158356 3.82667284 20.13831317 3 12 C2.01 12 1.02 12 0 12 C0 8.04 0 4.08 0 0 Z " fill="#940809" transform="translate(404,210)"/>
<path d="M0 0 C-0.66 1.65 -1.32 3.3 -2 5 C-2.495 3.515 -2.495 3.515 -3 2 C-6.98002161 2.47223607 -10.95883923 2.95394315 -14.9375 3.4375 C-16.64196289 3.63956055 -16.64196289 3.63956055 -18.38085938 3.84570312 C-20.00024414 4.04389648 -20.00024414 4.04389648 -21.65234375 4.24609375 C-23.15269165 4.42676392 -23.15269165 4.42676392 -24.68334961 4.61108398 C-26.95560901 4.76218286 -26.95560901 4.76218286 -28 6 C-29.85287502 6.07226502 -31.70833878 6.0838122 -33.5625 6.0625 C-34.57441406 6.05347656 -35.58632812 6.04445313 -36.62890625 6.03515625 C-37.80259766 6.01775391 -37.80259766 6.01775391 -39 6 C-39 6.66 -39 7.32 -39 8 C-41.64 8 -44.28 8 -47 8 C-42.16379646 5.34409829 -36.98538035 4.54181773 -31.625 3.4375 C-30.54822998 3.21425049 -29.47145996 2.99100098 -28.36206055 2.76098633 C-18.86760202 0.85667207 -9.6902989 -0.05314606 0 0 Z " fill="#7B0807" transform="translate(237,17)"/>
<path d="M0 0 C0.66 0.33 1.32 0.66 2 1 C1.67 1.99 1.34 2.98 1 4 C-0.65 4 -2.3 4 -4 4 C-4.2475 4.5775 -4.495 5.155 -4.75 5.75 C-6.82554091 9.48597363 -8.93173944 11.64391315 -13 13 C-14.67716479 14.73013599 -14.67716479 14.73013599 -16.3125 16.8125 C-19.27721459 20.32600219 -22.04613337 22.68554148 -26 25 C-26.66 24.67 -27.32 24.34 -28 24 C-26.71034824 22.62437146 -25.37310707 21.29233607 -24 20 C-23.34 20 -22.68 20 -22 20 C-21.67 19.01 -21.34 18.02 -21 17 C-20.2575 16.566875 -19.515 16.13375 -18.75 15.6875 C-15.96970843 13.98141199 -14.45132369 12.15985968 -12.45703125 9.62109375 C-8.94980704 5.71895421 -4.34021454 2.89347636 0 0 Z " fill="#800606" transform="translate(110,63)"/>
<path d="M0 0 C6.3876525 0.57800104 12.0601169 2.06926764 18.125 4.125 C19.03918701 4.43123291 19.95337402 4.73746582 20.89526367 5.05297852 C28.64213698 7.72414995 35.83126522 11.03611136 43 15 C39.28272326 16.13583456 37.52948291 15.66670026 34 14 C34 13.34 34 12.68 34 12 C33.2575 11.87625 32.515 11.7525 31.75 11.625 C29 11 29 11 27.21875 10.0625 C24.45845537 8.74066877 21.72432771 8.08625228 18.75 7.375 C17.13351562 6.98441406 17.13351562 6.98441406 15.484375 6.5859375 C14.66453125 6.39257812 13.8446875 6.19921875 13 6 C13 5.34 13 4.68 13 4 C12.14535156 3.87882812 11.29070312 3.75765625 10.41015625 3.6328125 C8.75306641 3.38144531 8.75306641 3.38144531 7.0625 3.125 C5.40927734 2.88136719 5.40927734 2.88136719 3.72265625 2.6328125 C2.82417969 2.42398437 1.92570312 2.21515625 1 2 C0.67 1.34 0.34 0.68 0 0 Z " fill="#820608" transform="translate(309,25)"/>
<path d="M0 0 C2.62538284 0.14053872 5.25017427 0.28718947 7.875 0.4375 C8.99455078 0.49647461 8.99455078 0.49647461 10.13671875 0.55664062 C15.7734375 0.88671875 15.7734375 0.88671875 18 2 C20.35155974 2.18312517 22.70665285 2.32194794 25.0625 2.4375 C30.89917216 2.76133214 36.34361008 3.51147634 42 5 C42 5.33 42 5.66 42 6 C27.56967702 6.98091319 14.05249099 4.02411665 0 1 C0 0.67 0 0.34 0 0 Z " fill="#300101" transform="translate(230,426)"/>
<path d="M0 0 C0.94602608 3.0851746 1.01578237 5.49259007 0.625 8.6875 C0.53476563 9.47511719 0.44453125 10.26273438 0.3515625 11.07421875 C0 13 0 13 -1 14 C-1.53869515 16.64370501 -2.03613565 19.28061359 -2.5 21.9375 C-3.8689759 29.73795181 -3.8689759 29.73795181 -5 32 C-5.17748134 33.43393653 -5.31891147 34.8724964 -5.4375 36.3125 C-5.79189424 39.85644243 -6.43323488 42.76201875 -8 46 C-9.17726199 42.49326217 -8.83778519 39.86165586 -8.1875 36.25 C-8.01605469 35.26515625 -7.84460938 34.2803125 -7.66796875 33.265625 C-7.04294756 30.20996587 -6.30369659 27.19888376 -5.53295898 24.17724609 C-4.35344695 19.35869898 -3.40908947 14.48584126 -2.41210938 9.62695312 C-2.24388672 8.81548828 -2.07566406 8.00402344 -1.90234375 7.16796875 C-1.75273193 6.43860107 -1.60312012 5.7092334 -1.44897461 4.95776367 C-1 3 -1 3 0 0 Z " fill="#1E0000" transform="translate(199,122)"/>
<path d="M0 0 C1.60294922 0.01353516 1.60294922 0.01353516 3.23828125 0.02734375 C4.04652344 0.03894531 4.85476562 0.05054688 5.6875 0.0625 C2.19029807 2.39396795 0.3337377 2.40554823 -3.8125 2.625 C-7.26300166 2.8153993 -10.02985134 2.96828378 -13.3125 4.0625 C-15.88515818 4.13279121 -18.42891431 4.15620832 -21 4.125 C-21.70189453 4.12048828 -22.40378906 4.11597656 -23.12695312 4.11132812 C-24.85550538 4.09956927 -26.58401365 4.08163454 -28.3125 4.0625 C-28.6425 4.7225 -28.9725 5.3825 -29.3125 6.0625 C-29.9725 4.7425 -30.6325 3.4225 -31.3125 2.0625 C-30.73282471 2.03744385 -30.15314941 2.0123877 -29.5559082 1.98657227 C-26.91207893 1.87003766 -24.26855591 1.74757318 -21.625 1.625 C-20.71298828 1.58568359 -19.80097656 1.54636719 -18.86132812 1.50585938 C-17.97509766 1.46396484 -17.08886719 1.42207031 -16.17578125 1.37890625 C-14.95822144 1.32391968 -14.95822144 1.32391968 -13.71606445 1.26782227 C-9.03323714 0.86779608 -4.75230583 -0.05222314 0 0 Z " fill="#840809" transform="translate(86.3125,374.9375)"/>
<path d="M0 0 C7.55137932 -0.30071865 14.58856436 0.57374434 22 2 C22 2.33 22 2.66 22 3 C18.7 3 15.4 3 12 3 C13.62366466 6.24732932 16.75387839 6.70155136 20 8 C20 8.66 20 9.32 20 10 C15.75244981 8.68528209 11.94192091 7.04979887 8 5 C6.54272419 4.2687221 5.0843596 3.53961051 3.625 2.8125 C2.41666667 2.20833333 1.20833333 1.60416667 0 1 C0 0.67 0 0.34 0 0 Z " fill="#83070A" transform="translate(268,18)"/>
<path d="M0 0 C0.928125 0.144375 1.85625 0.28875 2.8125 0.4375 C7.07408844 1.05752619 11.35219323 1.38720389 15.64453125 1.71875 C18 2 18 2 20 3 C20.33 3.99 20.66 4.98 21 6 C23.09719872 7.02281518 23.09719872 7.02281518 25.5625 7.6875 C26.38878906 7.93886719 27.21507812 8.19023437 28.06640625 8.44921875 C28.70449219 8.63097656 29.34257812 8.81273437 30 9 C26.85457134 10.02503349 25.06401461 9.97363192 21.953125 8.890625 C21.19 8.63023437 20.426875 8.36984375 19.640625 8.1015625 C18.85171875 7.82054687 18.0628125 7.53953125 17.25 7.25 C16.4765625 6.98445313 15.703125 6.71890625 14.90625 6.4453125 C9.90461267 4.71655866 4.94827842 2.87537493 0 1 C0 0.67 0 0.34 0 0 Z " fill="#870507" transform="translate(160,465)"/>
<path d="M0 0 C1.32 0.33 2.64 0.66 4 1 C-5.7155506 7.95071188 -15.6504139 14.98035492 -27 19 C-27.99 18.67 -28.98 18.34 -30 18 C-23.5 14 -23.5 14 -19 14 C-19 13.34 -19 12.68 -19 12 C-12.41484716 9.08733624 -12.41484716 9.08733624 -9.625 8.5 C-9.08875 8.335 -8.5525 8.17 -8 8 C-7.67 7.01 -7.34 6.02 -7 5 C-6.01 4.67 -5.02 4.34 -4 4 C-3.67 3.34 -3.34 2.68 -3 2 C-2.01 2 -1.02 2 0 2 C0 1.34 0 0.68 0 0 Z " fill="#99080A" transform="translate(324,375)"/>
<path d="M0 0 C0.66 0 1.32 0 2 0 C1.54364214 2.47954436 1.08495239 4.95862197 0.625 7.4375 C0.49867187 8.12521484 0.37234375 8.81292969 0.2421875 9.52148438 C-0.43359325 13.15380591 -1.17279765 16.75003281 -2.03125 20.34375 C-3.20386116 25.54180149 -3.6748494 30.76031627 -4.125 36.0625 C-4.25455078 37.50399414 -4.25455078 37.50399414 -4.38671875 38.97460938 C-4.59639503 41.31599448 -4.8007244 43.65771078 -5 46 C-5.33 46 -5.66 46 -6 46 C-6.21923471 36.40239168 -5.91619592 27.4497333 -4 18 C-3.66510636 16.06276909 -3.33173843 14.12527372 -3 12.1875 C-2.24024243 8.02692285 -1.25599576 4.03712923 0 0 Z " fill="#870809" transform="translate(45,250)"/>
<path d="M0 0 C0.609375 1.77734375 0.609375 1.77734375 1 4 C0.06722069 5.89887217 -0.87584703 7.79386826 -1.88671875 9.65234375 C-3.53397667 13.12603501 -4.34056418 16.7445333 -5.27734375 20.4609375 C-6.1483798 23.52133444 -7.58020808 26.16041615 -9 29 C-9.7136724 32.73771834 -9.7136724 32.73771834 -10 36 C-10.66 36 -11.32 36 -12 36 C-11.4431883 29.58552921 -9.87075145 24.04170213 -7.6875 18 C-7.39166016 17.14921875 -7.09582031 16.2984375 -6.79101562 15.421875 C-4.88531674 10.05463668 -2.64469227 5.04418127 0 0 Z " fill="#7D0708" transform="translate(37,154)"/>
<path d="M0 0 C1.65322266 0.01740234 1.65322266 0.01740234 3.33984375 0.03515625 C4.99693359 0.04869141 4.99693359 0.04869141 6.6875 0.0625 C7.54214844 0.07410156 8.39679688 0.08570313 9.27734375 0.09765625 C5.22129528 2.27053936 1.75238399 3.22574182 -2.84863281 3.21118164 C-3.64916077 3.21110611 -4.44968872 3.21103058 -5.2744751 3.21095276 C-6.55593414 3.20321083 -6.55593414 3.20321083 -7.86328125 3.1953125 C-8.74546326 3.19389755 -9.62764526 3.1924826 -10.53656006 3.19102478 C-13.3486269 3.18543626 -16.16061355 3.17288586 -18.97265625 3.16015625 C-20.88150927 3.15513977 -22.79036353 3.15057712 -24.69921875 3.14648438 C-29.37372872 3.13547059 -34.0481789 3.11821383 -38.72265625 3.09765625 C-38.72265625 2.76765625 -38.72265625 2.43765625 -38.72265625 2.09765625 C-37.14013062 2.06007202 -37.14013062 2.06007202 -35.52563477 2.02172852 C-31.62494997 1.92781516 -27.72445 1.82755591 -23.82397461 1.7253418 C-22.13326326 1.68193186 -20.44250634 1.64026136 -18.75170898 1.6003418 C-16.32652019 1.54278531 -13.9015621 1.47904976 -11.4765625 1.4140625 C-10.71614151 1.39735001 -9.95572052 1.38063751 -9.17225647 1.36341858 C-5.69491206 1.26443003 -3.20454118 0.1149405 0 0 Z " fill="#950809" transform="translate(254.72265625,402.90234375)"/>
<path d="M0 0 C0.33 0 0.66 0 1 0 C1.02887814 3.47914941 1.04675687 6.95826831 1.0625 10.4375 C1.07087891 11.43072266 1.07925781 12.42394531 1.08789062 13.44726562 C1.09111328 14.39150391 1.09433594 15.33574219 1.09765625 16.30859375 C1.10289307 17.18314209 1.10812988 18.05769043 1.11352539 18.95874023 C1 21 1 21 0 22 C-0.13424912 23.47674029 -0.23165467 24.95687555 -0.3125 26.4375 C-0.80459348 32.1211797 -2.64227801 36.84591008 -5 42 C-6.49080268 38.12391303 -5.34741672 35.81087556 -4 32 C-3.37042616 29.18426816 -2.89988258 26.34744765 -2.4375 23.5 C-2.30819092 22.7177002 -2.17888184 21.93540039 -2.0456543 21.12939453 C-0.92985649 14.10336635 -0.33142135 7.10841646 0 0 Z " fill="#2C0100" transform="translate(482,266)"/>
<path d="M0 0 C0.66 0.33 1.32 0.66 2 1 C-0.32510488 5.52103727 -2.94616584 8.04407926 -7 11 C-7.99 11 -8.98 11 -10 11 C-10.28875 11.61875 -10.5775 12.2375 -10.875 12.875 C-12 15 -12 15 -14 17 C-16.125 16.625 -16.125 16.625 -18 16 C-12.07341663 10.57712263 -6.13842918 5.18356242 0 0 Z " fill="#290000" transform="translate(154,233)"/>
<path d="M0 0 C0 4.03381023 -1.59573562 5.49433637 -4 8.6875 C-5.11375 10.17830078 -5.11375 10.17830078 -6.25 11.69921875 C-6.8275 12.45847656 -7.405 13.21773438 -8 14 C-8.99 13.01 -9.98 12.02 -11 11 C-12.65 11.66 -14.3 12.32 -16 13 C-12.83525695 9.74483572 -9.67247209 6.67991207 -6 4 C-5.34 4 -4.68 4 -4 4 C-4 3.34 -4 2.68 -4 2 C-2.68 1.34 -1.36 0.68 0 0 Z " fill="#900608" transform="translate(442,380)"/>
<path d="M0 0 C0.33 0 0.66 0 1 0 C0.91020874 1.12378052 0.91020874 1.12378052 0.81860352 2.27026367 C0.11082351 11.27955633 -0.48967372 20.29391462 -1.0625 29.3125 C-1.15422055 30.74674967 -1.24601703 32.1809945 -1.33789062 33.61523438 C-1.55946531 37.07676765 -1.78002558 40.53836462 -2 44 C-2.33 44 -2.66 44 -3 44 C-3.28047596 8.98797071 -3.28047596 8.98797071 0 0 Z " fill="#360000" transform="translate(103,203)"/>
<path d="M0 0 C4.40863686 1.43988506 7.50429097 3.85940282 10.9375 6.875 C13.92271173 9.47117123 16.87598736 11.91914194 20.19921875 14.0859375 C23.91058467 16.62229636 25.56067934 19.26927428 28 23 C25.50638429 21.79618552 23.31856917 20.54571278 21 19 C20.67 18.01 20.34 17.02 20 16 C17.74572728 14.47987963 17.74572728 14.47987963 15 13 C12.95950578 11.7295036 10.94982535 10.40568804 9 9 C9 8.34 9 7.68 9 7 C8.01 7 7.02 7 6 7 C1.43478261 2.86956522 1.43478261 2.86956522 0 0 Z " fill="#750706" transform="translate(384,60)"/>
<path d="M0 0 C0.66 0 1.32 0 2 0 C15.73202465 24.19173705 15.73202465 24.19173705 15 32 C13.24870303 29.37305455 12.23331188 27.22983334 11.125 24.3125 C9.62306386 20.47729776 7.96756303 16.81853862 6.08203125 13.16015625 C3.9174282 8.8387646 1.97769506 4.40928734 0 0 Z " fill="#320000" transform="translate(391,181)"/>
<path d="M0 0 C0.33 0 0.66 0 1 0 C1.58051881 8.94428987 -0.18625975 17.29836524 -2 26 C-4 26 -4 26 -6.5625 23.625 C-9 21 -9 21 -10 19 C-7.13275314 19.57344937 -6.1385485 19.8614515 -4 22 C-2.68 14.74 -1.36 7.48 0 0 Z " fill="#97090C" transform="translate(410,265)"/>
<path d="M0 0 C4.62 0.66 9.24 1.32 14 2 C14 2.66 14 3.32 14 4 C15.05767578 4.19916016 15.05767578 4.19916016 16.13671875 4.40234375 C19.06726299 5.01403989 21.9278361 5.7631353 24.8125 6.5625 C26.27623047 6.96662109 26.27623047 6.96662109 27.76953125 7.37890625 C28.50558594 7.58386719 29.24164063 7.78882813 30 8 C29.67 8.99 29.34 9.98 29 11 C28.67 10.34 28.34 9.68 28 9 C26.34717948 8.60367536 24.67597524 8.28283543 23 8 C21.05849077 7.49431676 19.12092347 6.97326795 17.1875 6.4375 C16.21167969 6.16808594 15.23585938 5.89867187 14.23046875 5.62109375 C13.12638672 5.31365234 13.12638672 5.31365234 12 5 C12 4.34 12 3.68 12 3 C11.38511719 3.11859375 10.77023437 3.2371875 10.13671875 3.359375 C8.92435547 3.55273438 8.92435547 3.55273438 7.6875 3.75 C6.88699219 3.88921875 6.08648437 4.0284375 5.26171875 4.171875 C4.51535156 4.11515625 3.76898438 4.0584375 3 4 C2.01 2.68 1.02 1.36 0 0 Z " fill="#95060B" transform="translate(314,352)"/>
<path d="M0 0 C5.51155833 1.07542602 7.67819599 3.62670846 11.06640625 7.76953125 C13.78101025 10.90092294 16.85011974 13.5369039 19.984375 16.23828125 C21.73248877 17.76618689 23.38231867 19.33624547 25 21 C24.67 21.66 24.34 22.32 24 23 C17.28926735 17.36606112 11.14854256 11.23125838 5 5 C3.33585392 3.33078888 1.66818463 1.66517889 0 0 Z " fill="#99080A" transform="translate(366,251)"/>
<path d="M0 0 C3 2 3 2 3.66015625 4.5390625 C3.79292969 5.55742187 3.92570312 6.57578125 4.0625 7.625 C4.56470299 11.1784027 5.08864018 14.56479331 6.125 18 C7.5428874 23.22845978 7.16110039 28.62998697 7 34 C6.67 34 6.34 34 6 34 C5.81824219 32.83984375 5.63648438 31.6796875 5.44921875 30.484375 C4.14755143 22.3426249 2.76087015 14.33913255 0.55078125 6.3828125 C0 4 0 4 0 0 Z " fill="#910707" transform="translate(306,146)"/>
<path d="M0 0 C0.99 0 1.98 0 3 0 C3 0.66 3 1.32 3 2 C0.78581383 3.8915307 -1.43566984 5.67649679 -3.75 7.4375 C-4.38421875 7.92798828 -5.0184375 8.41847656 -5.671875 8.92382812 C-8.7616078 11.30871563 -11.86992657 13.66825338 -15 16 C-14.6655974 12.90677596 -14.4404882 11.41112232 -12.125 9.25 C-10 8 -10 8 -7 7 C-6.154375 6.154375 -5.30875 5.30875 -4.4375 4.4375 C-3.633125 3.633125 -2.82875 2.82875 -2 2 C-1.34 2 -0.68 2 0 2 C0 1.34 0 0.68 0 0 Z " fill="#960508" transform="translate(170,217)"/>
<path d="M0 0 C0.33 0.99 0.66 1.98 1 3 C0.38125 3.2475 -0.2375 3.495 -0.875 3.75 C-3.11318234 4.80681514 -3.11318234 4.80681514 -3.921875 6.84765625 C-5.12105453 9.24167047 -6.49194467 10.79211024 -8.375 12.6875 C-8.96023437 13.28949219 -9.54546875 13.89148438 -10.1484375 14.51171875 C-12.12608914 16.10135013 -13.5214179 16.5905426 -16 17 C-14.71937515 15.2925002 -13.38232443 13.62626404 -12 12 C-11.34 12 -10.68 12 -10 12 C-9.7525 10.9790625 -9.7525 10.9790625 -9.5 9.9375 C-7.28698373 5.60367647 -3.74480511 3.02197064 0 0 Z " fill="#170000" transform="translate(118,134)"/>
<path d="M0 0 C5.54928662 0.04643754 10.87568322 1.78467123 16.1875 3.25 C12.22080137 4.41413981 9.28078146 3.86399222 5.1875 3.25 C-0.82712584 2.95896972 -5.99298782 3.74123758 -11.8125 5.25 C-11.8125 4.26 -11.8125 3.27 -11.8125 2.25 C-9.76171875 2.02213542 -7.7109375 1.79427083 -5.66015625 1.56640625 C-3.05975601 1.12109458 -2.92536841 0.26003275 0 0 Z " fill="#250000" transform="translate(247.8125,200.75)"/>
<path d="M0 0 C0.6875 1.8125 0.6875 1.8125 1 4 C0.55269531 4.44472656 0.10539062 4.88945312 -0.35546875 5.34765625 C-2.31565167 7.31715121 -3.01359262 9.03568063 -4 11.625 C-4.33515625 12.5015625 -4.6703125 13.378125 -5.015625 14.28125 C-6.4211434 18.16315796 -7.74589482 22.06667012 -9 26 C-9.66 26 -10.32 26 -11 26 C-9.03648101 16.71791025 -5.72637159 7.63516213 0 0 Z " fill="#900708" transform="translate(122,158)"/>
<path d="M0 0 C-19.77721519 8.97721519 -19.77721519 8.97721519 -28 6 C-25.50090425 5.2053846 -23.00078857 4.41425597 -20.5 3.625 C-19.45585937 3.29242188 -19.45585937 3.29242188 -18.390625 2.953125 C-4.53816591 -1.40783434 -4.53816591 -1.40783434 0 0 Z " fill="#99070B" transform="translate(172,357)"/>
<path d="M0 0 C0 0.66 0 1.32 0 2 C-2.53804678 3.46495337 -5.08009717 4.92204322 -7.625 6.375 C-8.33785156 6.7875 -9.05070313 7.2 -9.78515625 7.625 C-13.77580578 9.89491074 -17.55729762 11.72465011 -22 13 C-18.17819158 8.5991297 -15.52628901 7.19194469 -10 6 C-10 5.34 -10 4.68 -10 4 C-8.71086513 3.32845067 -7.41859796 2.66291141 -6.125 2 C-5.40570313 1.62875 -4.68640625 1.2575 -3.9453125 0.875 C-2 0 -2 0 0 0 Z " fill="#860609" transform="translate(140,45)"/>
<path d="M0 0 C-0.66 0 -1.32 0 -2 0 C-2 0.66 -2 1.32 -2 2 C-3.54922376 2.66898299 -5.0993205 3.33597914 -6.65234375 3.99609375 C-8.46144642 4.76970338 -10.26512338 5.55600964 -12.06640625 6.34765625 C-13.13761719 6.81042969 -14.20882812 7.27320312 -15.3125 7.75 C-16.33988281 8.19859375 -17.36726562 8.6471875 -18.42578125 9.109375 C-19.27527344 9.40328125 -20.12476563 9.6971875 -21 10 C-21.66 9.67 -22.32 9.34 -23 9 C-19.92725154 7.29266954 -16.84034212 5.61274352 -13.75 3.9375 C-12.87730469 3.45216797 -12.00460938 2.96683594 -11.10546875 2.46679688 C-10.26113281 2.01240234 -9.41679687 1.55800781 -8.546875 1.08984375 C-7.77182617 0.66566162 -6.99677734 0.24147949 -6.19824219 -0.19555664 C-3.66134523 -1.12393019 -2.49749524 -0.91790413 0 0 Z " fill="#920709" transform="translate(194,99)"/>
<path d="M0 0 C3.19119001 1.38053655 5.03343562 2.89939474 7.25 5.5625 C10.57222207 9.50448584 14.00967945 13.31984062 17.49609375 17.1171875 C19 19 19 19 19 21 C18.34 21 17.68 21 17 21 C17 20.34 17 19.68 17 19 C16.34 19 15.68 19 15 19 C13.05942687 17.39691785 11.93413635 15.88395453 10.6875 13.6875 C9.1887519 11.30060488 7.8184672 9.7431257 5.8125 7.8125 C4.884375 6.884375 3.95625 5.95625 3 5 C3 4.34 3 3.68 3 3 C2.01 2.67 1.02 2.34 0 2 C0 1.34 0 0.68 0 0 Z " fill="#800809" transform="translate(412,83)"/>
<path d="M0 0 C2.0625 0.4375 2.0625 0.4375 4 1 C1.5034256 2.13315391 -0.99683772 3.25656579 -3.5 4.375 C-4.19609375 4.69210937 -4.8921875 5.00921875 -5.609375 5.3359375 C-18.00688991 10.84594413 -18.00688991 10.84594413 -24 9 C-17.24675325 7.05194805 -17.24675325 7.05194805 -14.625 6.5 C-14.08875 6.335 -13.5525 6.17 -13 6 C-12.67 5.34 -12.34 4.68 -12 4 C-9.53125 3.18359375 -9.53125 3.18359375 -6.5 2.4375 C-2.95211183 1.79159388 -2.95211183 1.79159388 0 0 Z " fill="#330000" transform="translate(382,413)"/>
<path d="M0 0 C6.25107435 0.42954941 12.04204521 1.01401507 18 3 C18 3.66 18 4.32 18 5 C19.093125 4.95875 20.18625 4.9175 21.3125 4.875 C25 5 25 5 28 7 C18.00376278 6.79174506 9.35632897 4.21772227 0 1 C0 0.67 0 0.34 0 0 Z " fill="#8F0A08" transform="translate(188,398)"/>
<path d="M0 0 C0.66 0.99 1.32 1.98 2 3 C1.67 3.33 1.34 3.66 1 4 C0.83948952 5.99746374 0.72229703 7.99846102 0.625 10 C0.2319842 15.84369394 -0.87918092 20.55963802 -3 26 C-4.45216851 22.02455998 -3.73839363 18.20985755 -3.1875 14.125 C-3.10435547 13.43019531 -3.02121094 12.73539063 -2.93554688 12.01953125 C-2.39210542 7.8068683 -1.48726445 4.0036908 0 0 Z " fill="#2B0000" transform="translate(189,170)"/>
<path d="M0 0 C0 4.71803649 -2.31413578 8.20388993 -5 12 C-7.23725324 14.01075446 -9.41292211 15.42746246 -12 17 C-11.34 15.02 -10.68 13.04 -10 11 C-9.34 11 -8.68 11 -8 11 C-7.71125 10.4225 -7.4225 9.845 -7.125 9.25 C-6.568125 8.13625 -6.568125 8.13625 -6 7 C-5.71125 6.319375 -5.4225 5.63875 -5.125 4.9375 C-3.77576461 2.61381682 -2.21705385 1.4780359 0 0 Z " fill="#810607" transform="translate(66,107)"/>
<path d="M0 0 C0.33 0 0.66 0 1 0 C0.96519531 1.41539062 0.96519531 1.41539062 0.9296875 2.859375 C0.81320401 11.14634301 1.29944529 18.84644749 3 27 C2.34 26.67 1.68 26.34 1 26 C0.4375 23.9609375 0.4375 23.9609375 0 21.375 C-0.55792457 18.17713964 -1.18205756 15.50584377 -2.3125 12.4375 C-3.26248374 7.68758128 -1.84521741 4.37495096 0 0 Z " fill="#200000" transform="translate(203,239)"/>
<path d="M0 0 C-2.66318588 0.98961566 -5.32993307 1.96676851 -8 2.9375 C-8.74378906 3.21529297 -9.48757813 3.49308594 -10.25390625 3.77929688 C-15.20476843 5.56591236 -19.75508851 6.52914999 -25 7 C-24.01 6.67 -23.02 6.34 -22 6 C-22 5.34 -22 4.68 -22 4 C-21.31292969 3.87882812 -20.62585938 3.75765625 -19.91796875 3.6328125 C-19.01691406 3.46523438 -18.11585938 3.29765625 -17.1875 3.125 C-16.29417969 2.96257812 -15.40085937 2.80015625 -14.48046875 2.6328125 C-11.77272154 2.08811551 -11.77272154 2.08811551 -9 0 C-5.40545095 -0.82375082 -3.53372717 -1.17790906 0 0 Z " fill="#9E080B" transform="translate(294,395)"/>
<path d="M0 0 C0.33 0.99 0.66 1.98 1 3 C-0.29296875 4.83203125 -0.29296875 4.83203125 -2.1875 6.8125 C-4.43843933 9.24244047 -6.49053616 11.56675771 -8.25 14.375 C-10 17 -10 17 -13 19 C-11.48233246 15.89239504 -9.85147963 12.87173925 -8.125 9.875 C-7.63257813 9.00617188 -7.14015625 8.13734375 -6.6328125 7.2421875 C-4.87875931 4.83351159 -3.62809903 4.24257402 -1 3 C-0.67 2.01 -0.34 1.02 0 0 Z " fill="#9A070C" transform="translate(140,133)"/>
<path d="M0 0 C0.33 0.99 0.66 1.98 1 3 C-2.08632611 6.2626876 -4.93483504 9.02235218 -9 11 C-9.66 10.67 -10.32 10.34 -11 10 C-7.50640535 6.40365256 -3.88901869 3.16548033 0 0 Z " fill="#900508" transform="translate(152,122)"/>
<path d="M0 0 C0.33 1.32 0.66 2.64 1 4 C-1.1875 6.5 -1.1875 6.5 -4 9 C-5.1446875 10.1446875 -5.1446875 10.1446875 -6.3125 11.3125 C-6.869375 11.869375 -7.42625 12.42625 -8 13 C-8.99 12.67 -9.98 12.34 -11 12 C-7.37 8.04 -3.74 4.08 0 0 Z " fill="#220000" transform="translate(429,399)"/>
<path d="M0 0 C1.58193864 2.37290796 2.53089868 4.11962201 3.5078125 6.72265625 C3.90419922 7.77743164 3.90419922 7.77743164 4.30859375 8.85351562 C4.57800781 9.58248047 4.84742188 10.31144531 5.125 11.0625 C5.40214844 11.79533203 5.67929687 12.52816406 5.96484375 13.28320312 C8 18.74203356 8 18.74203356 8 21 C7.34 21 6.68 21 6 21 C3.12020033 14.61435726 3.12020033 14.61435726 2.4375 11.125 C2.293125 10.42375 2.14875 9.7225 2 9 C1.34 8.67 0.68 8.34 0 8 C0 5.36 0 2.72 0 0 Z " fill="#2F0001" transform="translate(27,320)"/>
<path d="M0 0 C0.33 0 0.66 0 1 0 C1.05796132 4.10410755 1.09358313 8.20811016 1.125 12.3125 C1.14175781 13.47974609 1.15851563 14.64699219 1.17578125 15.84960938 C1.18222656 16.96787109 1.18867188 18.08613281 1.1953125 19.23828125 C1.20578613 20.26993408 1.21625977 21.30158691 1.22705078 22.36450195 C1 25 1 25 -1 28 C-1.66 28 -2.32 28 -3 28 C-2.68289063 26.8965625 -2.36578125 25.793125 -2.0390625 24.65625 C-0.78087972 19.62351888 -0.55525692 14.66736517 -0.375 9.5 C-0.33632813 8.5821875 -0.29765625 7.664375 -0.2578125 6.71875 C-0.16450436 4.47935472 -0.07871815 2.23994746 0 0 Z " fill="#2F0002" transform="translate(296,240)"/>
<path d="M0 0 C2.86191302 1.43095651 3.46054572 3.43890126 4.9375 6.25 C6.45365353 9.11944658 7.95505193 11.92899658 9.69140625 14.671875 C11 17 11 17 11 20 C10.34 20 9.68 20 9 20 C8.66226562 19.28972656 8.32453125 18.57945312 7.9765625 17.84765625 C7.53054688 16.92855469 7.08453125 16.00945312 6.625 15.0625 C6.18414062 14.14597656 5.74328125 13.22945312 5.2890625 12.28515625 C4.20800838 9.87096198 4.20800838 9.87096198 2 9 C1.3671875 6.93359375 1.3671875 6.93359375 0.875 4.4375 C0.70742188 3.61121094 0.53984375 2.78492187 0.3671875 1.93359375 C0.24601562 1.29550781 0.12484375 0.65742187 0 0 Z " fill="#830707" transform="translate(446,124)"/>
<path d="M0 0 C0.66 0 1.32 0 2 0 C3.21875 1.49609375 3.21875 1.49609375 4.5 3.4375 C6.2865363 6.22531847 6.2865363 6.22531847 9 8 C9.4140625 10.72265625 9.4140625 10.72265625 9.625 14.0625 C9.69976562 15.16722656 9.77453125 16.27195313 9.8515625 17.41015625 C9.90054687 18.26480469 9.94953125 19.11945313 10 20 C8.2347399 17.35210984 7.23166217 15.19500181 6.125 12.25 C4.42424194 7.88940978 2.43130246 3.99428261 0 0 Z " fill="#290000" transform="translate(286,220)"/>
<path d="M0 0 C0.33 0 0.66 0 1 0 C1 2.64 1 5.28 1 8 C0.34 8 -0.32 8 -1 8 C-1.12117188 8.90363281 -1.24234375 9.80726563 -1.3671875 10.73828125 C-1.53476563 11.91777344 -1.70234375 13.09726563 -1.875 14.3125 C-2.03742188 15.48425781 -2.19984375 16.65601563 -2.3671875 17.86328125 C-3 21 -3 21 -5 24 C-4.65954675 15.50569131 -2.74341572 8.026086 0 0 Z " fill="#8D090A" transform="translate(108,190)"/>
<path d="M0 0 C0.609375 1.8203125 0.609375 1.8203125 1 4 C-0.75 6.875 -0.75 6.875 -3 10 C-4.02930047 11.98507948 -5.03863929 13.98114251 -6 16 C-6.66 16 -7.32 16 -8 16 C-6.25267359 9.73519555 -4.02879721 5.11766132 0 0 Z " fill="#7C0608" transform="translate(53,124)"/>
<path d="M0 0 C-6.16795162 4.11196775 -13.76565833 4.26793858 -21 4 C-17.61847808 2.10203794 -14.26563452 1.19776958 -10.5 0.3125 C-9.3759375 0.04050781 -8.251875 -0.23148437 -7.09375 -0.51171875 C-4.2315358 -0.9634571 -2.67758663 -0.97784414 0 0 Z " fill="#310000" transform="translate(281,401)"/>
<path d="M0 0 C2.28348293 1.13900347 4.56310889 2.28503999 6.83984375 3.4375 C7.86207031 3.953125 8.88429687 4.46875 9.9375 5 C10.95714844 5.515625 11.97679687 6.03125 13.02734375 6.5625 C15.65229737 7.83185997 18.2784972 8.95750906 21 10 C16.54059048 11.56848197 13.73800527 10.09445483 9.55078125 8.3203125 C5.88267457 6.42166004 2.8116494 4.02578164 0 1 C0 0.67 0 0.34 0 0 Z " fill="#7B0708" transform="translate(219,284)"/>
<path d="M0 0 C2.28165132 3.42247699 2.88604596 6.54131766 3.625 10.5 C3.7590625 11.17675781 3.893125 11.85351562 4.03125 12.55078125 C4.58536827 15.41749517 5 18.07331285 5 21 C4.34 21 3.68 21 3 21 C0.95461111 14.04567778 0.41830366 7.22124213 0 0 Z " fill="#310000" transform="translate(300,122)"/>
<path d="M0 0 C-2.62309099 1.17112946 -5.24828142 2.33705964 -7.875 3.5 C-8.62136719 3.83386719 -9.36773437 4.16773437 -10.13671875 4.51171875 C-10.85214844 4.82753906 -11.56757813 5.14335938 -12.3046875 5.46875 C-12.96452637 5.76201172 -13.62436523 6.05527344 -14.30419922 6.35742188 C-16 7 -16 7 -18 7 C-17.67 6.01 -17.34 5.02 -17 4 C-15.68 4 -14.36 4 -13 4 C-13 3.34 -13 2.68 -13 2 C-11.35 2 -9.7 2 -8 2 C-8 1.34 -8 0.68 -8 0 C-4.71303767 -0.79953138 -3.28976808 -1.09658936 0 0 Z " fill="#260000" transform="translate(200,95)"/>
<path d="M0 0 C4.01290838 1.52400341 5.74532242 3.98729416 8.1875 7.4375 C9.22970703 8.88962891 9.22970703 8.88962891 10.29296875 10.37109375 C12 13 12 13 13 16 C9.56113867 14.85371289 9.02735281 13.72791464 7.18359375 10.7578125 C5.41683282 8.13391013 3.29769133 5.85191819 1.171875 3.515625 C0 2 0 2 0 0 Z " fill="#360000" transform="translate(358,82)"/>
<path d="M0 0 C5.99886605 2.76870741 11.0191568 6.73070583 16 11 C12.62268144 11 12.0672036 10.54983086 9.5 8.5625 C7.21358374 6.80256117 5.80046379 5.93348793 3 5 C3 4.34 3 3.68 3 3 C2.34 3 1.68 3 1 3 C0.67 2.01 0.34 1.02 0 0 Z " fill="#9C070A" transform="translate(342,132)"/>
<path d="M0 0 C0.66 0.33 1.32 0.66 2 1 C-1.10148685 4.98762595 -3.53550726 7.53278033 -8 10 C-9.75149165 11.58245275 -9.75149165 11.58245275 -11 13 C-11.66 12.67 -12.32 12.34 -13 12 C-4.738041 3.55353075 -4.738041 3.55353075 0 0 Z " fill="#320000" transform="translate(132,121)"/>
<path d="M0 0 C0.33 0.66 0.66 1.32 1 2 C0.12499183 3.34709162 -0.77590933 4.67738986 -1.6875 6 C-2.18636719 6.7425 -2.68523437 7.485 -3.19921875 8.25 C-5 10 -5 10 -7.70703125 10.25 C-8.46371094 10.1675 -9.22039062 10.085 -10 10 C-6.66666667 6.66666667 -3.33333333 3.33333333 0 0 Z " fill="#200000" transform="translate(409,420)"/>
<path d="M0 0 C-2.57967797 0.86689178 -5.16276127 1.71873789 -7.75 2.5625 C-8.84441406 2.9327832 -8.84441406 2.9327832 -9.9609375 3.31054688 C-10.66992188 3.53935547 -11.37890625 3.76816406 -12.109375 4.00390625 C-12.75874023 4.21861572 -13.40810547 4.4333252 -14.07714844 4.65454102 C-16.33444538 5.06008636 -17.83473482 4.69296911 -20 4 C-13.61704472 0.82329772 -7.15671577 -2.38557192 0 0 Z " fill="#2C0000" transform="translate(168,357)"/>
<path d="M0 0 C-12.87537556 5.9012138 -12.87537556 5.9012138 -19 4 C-16.58732675 3.132758 -14.17095531 2.28103064 -11.75 1.4375 C-11.06808594 1.19064453 -10.38617188 0.94378906 -9.68359375 0.68945312 C-3.41657839 -1.47053761 -3.41657839 -1.47053761 0 0 Z " fill="#9C080C" transform="translate(208,346)"/>
<path d="M0 0 C2.98093122 2.5550839 4.52359755 5.38281401 6 9 C5.6875 11.375 5.6875 11.375 5 13 C4.896875 12.360625 4.79375 11.72125 4.6875 11.0625 C4.460625 10.381875 4.23375 9.70125 4 9 C3.01 8.67 2.02 8.34 1 8 C0.67 5.36 0.34 2.72 0 0 Z " fill="#850608" transform="translate(457,144)"/>
<path d="M0 0 C2.10362343 7.05988772 0.14166299 13.58007998 -3 20 C-4.37344385 15.60155678 -3.24307502 12.07495445 -2.0625 7.75 C-1.86720703 7.00492188 -1.67191406 6.25984375 -1.47070312 5.4921875 C-0.98895802 3.65920614 -0.49560775 1.82928182 0 0 Z " fill="#370000" transform="translate(199,122)"/>
<path d="M0 0 C0.33 0.66 0.66 1.32 1 2 C-0.92333011 6.06036357 -3.40069448 8.37347975 -7 11 C-7.66 10.67 -8.32 10.34 -9 10 C-7.61122646 6.64379729 -6.08322035 4.92701272 -3 3 C-2.34 3 -1.68 3 -1 3 C-0.67 2.01 -0.34 1.02 0 0 Z " fill="#700404" transform="translate(81,88)"/>
<path d="M0 0 C1.05603065 3.18226684 0.97463666 4.85691226 -0.3125 7.9375 C-0.59351563 8.62714844 -0.87453125 9.31679688 -1.1640625 10.02734375 C-1.43992188 10.67832031 -1.71578125 11.32929687 -2 12 C-2.391875 12.99 -2.78375 13.98 -3.1875 15 C-3.455625 15.66 -3.72375 16.32 -4 17 C-4.66 17 -5.32 17 -6 17 C-4.33846988 11.14340094 -2.52958084 5.5409866 0 0 Z " fill="#2F0000" transform="translate(227,36)"/>
<path d="M0 0 C2.31 0.33 4.62 0.66 7 1 C7 1.66 7 2.32 7 3 C8.32 3 9.64 3 11 3 C11 3.66 11 4.32 11 5 C12.98 5.66 14.96 6.32 17 7 C15 8 15 8 11.875 7.0625 C10.92625 6.711875 9.9775 6.36125 9 6 C9 5.34 9 4.68 9 4 C8.2575 3.87625 7.515 3.7525 6.75 3.625 C4.19858515 3.04513299 2.2732427 2.26291261 0 1 C0 0.67 0 0.34 0 0 Z " fill="#2F0000" transform="translate(181,408)"/>
<path d="M0 0 C0.66 0 1.32 0 2 0 C0.71291613 5.54436129 -0.91864693 10.70201036 -3 16 C-3.33 16 -3.66 16 -4 16 C-4 13.36 -4 10.72 -4 8 C-3.34 8 -2.68 8 -2 8 C-1.34 5.36 -0.68 2.72 0 0 Z " fill="#320001" transform="translate(111,176)"/>
<path d="M0 0 C0.33 0.66 0.66 1.32 1 2 C0 5 0 5 -3 7 C-3.12375 7.66 -3.2475 8.32 -3.375 9 C-3.58125 9.66 -3.7875 10.32 -4 11 C-6.5625 12.25 -6.5625 12.25 -9 13 C-7.47987323 7.59510481 -3.72614782 4.01507372 0 0 Z " fill="#330000" transform="translate(99,153)"/>
<path d="M0 0 C6.34542132 1.61746034 10.86994882 4.00996019 16 8 C11.61110675 7.33501617 8.0188515 5.81242323 4 4 C4 3.34 4 2.68 4 2 C2.68 2 1.36 2 0 2 C0 1.34 0 0.68 0 0 Z " fill="#290001" transform="translate(268,19)"/>
<path d="M0 0 C0.33 0.99 0.66 1.98 1 3 C3.31808364 4.03485877 5.65175298 5.0355414 8 6 C8.33 6.66 8.66 7.32 9 8 C3.98491285 6.45941767 -0.6147081 4.97068161 -5 2 C-2 0 -2 0 0 0 Z " fill="#810609" transform="translate(149,456)"/>
<path d="M0 0 C1.08030956 3.31809364 0.92122208 5.71803947 0.25 9.125 C0.01023437 10.42824219 0.01023437 10.42824219 -0.234375 11.7578125 C-1 14 -1 14 -4 16 C-3.47606294 10.13190493 -2.23891142 5.45126259 0 0 Z " fill="#2E0000" transform="translate(50,240)"/>
<path d="M0 0 C4.06498881 1.37184347 6.67396561 3.22068459 9.8125 6.125 C10.99779297 7.21167969 10.99779297 7.21167969 12.20703125 8.3203125 C12.79871094 8.87460938 13.39039063 9.42890625 14 10 C11 10 11 10 9 9 C9 8.34 9 7.68 9 7 C8.01 7 7.02 7 6 7 C1.43478261 2.86956522 1.43478261 2.86956522 0 0 Z " fill="#86060B" transform="translate(384,60)"/>
<path d="M0 0 C-1.78174788 2.30142435 -3.16304165 3.80034391 -6.046875 4.48828125 C-8.0246611 4.72323102 -10.01271872 4.86751458 -12 5 C-11.34 4.67 -10.68 4.34 -10 4 C-10 3.34 -10 2.68 -10 2 C-8.71211992 1.46987262 -7.41953322 0.9511671 -6.125 0.4375 C-5.40570313 0.14746094 -4.68640625 -0.14257812 -3.9453125 -0.44140625 C-2 -1 -2 -1 0 0 Z " fill="#880605" transform="translate(152,40)"/>
<path d="M0 0 C2.64 0 5.28 0 8 0 C8 0.66 8 1.32 8 2 C9.175625 2.185625 9.175625 2.185625 10.375 2.375 C13 3 13 3 15 5 C9.7415998 4.32584613 4.97361654 2.75734451 0 1 C0 0.67 0 0.34 0 0 Z " fill="#200000" transform="translate(321,27)"/>
<path d="M0 0 C4.75 1.875 4.75 1.875 7 3 C7 3.66 7 4.32 7 5 C9.97 5.495 9.97 5.495 13 6 C13 6.99 13 7.98 13 9 C2.70588235 4.05882353 2.70588235 4.05882353 0 0 Z " fill="#800605" transform="translate(119,442)"/>
<path d="M0 0 C0.33 0.99 0.66 1.98 1 3 C0.01 3 -0.98 3 -2 3 C-2.185625 3.61875 -2.37125 4.2375 -2.5625 4.875 C-4.71437233 8.05602866 -7.37533763 8.19451947 -11 9 C-7.56638098 5.36440339 -4.2026393 2.63886654 0 0 Z " fill="#2A0000" transform="translate(390,436)"/>
<path d="M0 0 C0 3 0 3 -2.3125 5.4375 C-3.199375 6.283125 -4.08625 7.12875 -5 8 C-6.02813611 9.31175986 -7.04084432 10.6369893 -8 12 C-8.99 11.67 -9.98 11.34 -11 11 C-7.37 7.37 -3.74 3.74 0 0 Z " fill="#2D0000" transform="translate(127,257)"/>
<path d="M0 0 C1.32 0.33 2.64 0.66 4 1 C2.85793642 2.50287218 1.71125043 4.00223284 0.5625 5.5 C-0.39462891 6.75296875 -0.39462891 6.75296875 -1.37109375 8.03125 C-1.90863281 8.6809375 -2.44617188 9.330625 -3 10 C-3.33 10 -3.66 10 -4 10 C-4.1875 7.625 -4.1875 7.625 -4 5 C-3.01 4.34 -2.02 3.68 -1 3 C-0.67 2.01 -0.34 1.02 0 0 Z " fill="#990707" transform="translate(95,153)"/>
<path d="M0 0 C2.625 0.25 2.625 0.25 4.4375 1.75 C4.829375 2.245 5.22125 2.74 5.625 3.25 C3.315 3.25 1.005 3.25 -1.375 3.25 C-1.045 4.9 -0.715 6.55 -0.375 8.25 C-1.035 8.25 -1.695 8.25 -2.375 8.25 C-2.75563221 5.9239143 -3.08769945 3.58944736 -3.375 1.25 C-2.375 0.25 -2.375 0.25 0 0 Z " fill="#2E0100" transform="translate(300.375,110.75)"/>
<path d="M0 0 C-4.90268569 3.26845713 -9.13173703 4.27944109 -15 4 C-14 2 -14 2 -11.85546875 1.11328125 C-10.97503906 0.84902344 -10.09460938 0.58476562 -9.1875 0.3125 C-8.31480469 0.04050781 -7.44210937 -0.23148437 -6.54296875 -0.51171875 C-3.93126166 -1.01319861 -2.48283616 -0.86233704 0 0 Z " fill="#2F0000" transform="translate(329,471)"/>
<path d="M0 0 C0.99 0.33 1.98 0.66 3 1 C3 1.99 3 2.98 3 4 C3.598125 4.2475 4.19625 4.495 4.8125 4.75 C7.28647521 6.16370012 8.43370255 7.65055383 10 10 C9.67 10.66 9.34 11.32 9 12 C7.62437146 10.71034824 6.29233607 9.37310707 5 8 C5 7.34 5 6.68 5 6 C4.360625 5.7525 3.72125 5.505 3.0625 5.25 C1 4 1 4 0.25 1.875 C0.1675 1.25625 0.085 0.6375 0 0 Z " fill="#6C0406" transform="translate(59,384)"/>
<path d="M0 0 C-0.33 1.65 -0.66 3.3 -1 5 C-1.33 4.01 -1.66 3.02 -2 2 C-3.0725 2.515625 -4.145 3.03125 -5.25 3.5625 C-8.25254899 5.00603317 -9.83246499 5.05818094 -13 4 C-11.39850114 3.32694982 -9.79368971 2.66177773 -8.1875 2 C-7.29417969 1.62875 -6.40085938 1.2575 -5.48046875 0.875 C-3 0 -3 0 0 0 Z " fill="#860B0B" transform="translate(207,93)"/>
<path d="M0 0 C3.4398759 0 5.43271292 0.46441758 7.95703125 2.84765625 C9.69798248 4.85808262 11.37770589 6.89293753 13 9 C9.47400278 9 9.02707839 8.46519566 6.5 6.1875 C5.61828125 5.40439453 5.61828125 5.40439453 4.71875 4.60546875 C3.10998512 3.1027361 1.54471793 1.56826546 0 0 Z " fill="#290000" transform="translate(386,60)"/>
<path d="M0 0 C1 2 1 2 0.00390625 5.2578125 C-0.46889984 6.5497052 -0.94971969 7.83868638 -1.4375 9.125 C-1.68048828 9.78371094 -1.92347656 10.44242188 -2.17382812 11.12109375 C-2.77578321 12.74991338 -3.38702412 14.37529575 -4 16 C-4.84062397 12.90226756 -5.08935201 10.21667249 -5 7 C-4.34 6.67 -3.68 6.34 -3 6 C-1.95191959 4.02477154 -0.9479589 2.02518491 0 0 Z " fill="#8F0707" transform="translate(223,43)"/>
<path d="M0 0 C0.33 1.32 0.66 2.64 1 4 C0.34 4 -0.32 4 -1 4 C-1.0825 4.721875 -1.165 5.44375 -1.25 6.1875 C-2.14750201 9.55313254 -3.7114278 11.41612816 -6 14 C-5.41892368 10.2397015 -4.34800504 7.46964968 -2.4375 4.1875 C-1.98246094 3.39730469 -1.52742187 2.60710938 -1.05859375 1.79296875 C-0.53458984 0.90544922 -0.53458984 0.90544922 0 0 Z " fill="#2B0101" transform="translate(236,19)"/>
<path d="M0 0 C0 0.99 0 1.98 0 3 C-1.57725347 3.70133599 -3.16211333 4.385583 -4.75 5.0625 C-5.63171875 5.44535156 -6.5134375 5.82820313 -7.421875 6.22265625 C-10.15256309 7.04600008 -11.36901347 6.9773992 -14 6 C-7.375 3 -7.375 3 -4 3 C-4 2.34 -4 1.68 -4 1 C-2 0 -2 0 0 0 Z " fill="#840707" transform="translate(398,408)"/>
<path d="M0 0 C0.33 0.66 0.66 1.32 1 2 C0.44570312 2.47050781 -0.10859375 2.94101563 -0.6796875 3.42578125 C-1.40414062 4.04839844 -2.12859375 4.67101562 -2.875 5.3125 C-3.59429687 5.92738281 -4.31359375 6.54226562 -5.0546875 7.17578125 C-7.19179331 9.0412324 -7.19179331 9.0412324 -9 12 C-9.66 11.67 -10.32 11.34 -11 11 C-7.75269769 6.03353764 -5.12779375 2.98127544 0 0 Z " fill="#7E080B" transform="translate(223,212)"/>
<path d="M0 0 C2.475 0.495 2.475 0.495 5 1 C5 1.66 5 2.32 5 3 C5.78375 3.0825 6.5675 3.165 7.375 3.25 C10 4 10 4 11.3125 6.0625 C11.6528125 7.0215625 11.6528125 7.0215625 12 8 C9.14940657 6.61964507 6.44119096 5.10703513 3.75 3.4375 C3.04359375 3.00308594 2.3371875 2.56867188 1.609375 2.12109375 C1.07828125 1.75113281 0.5471875 1.38117188 0 1 C0 0.67 0 0.34 0 0 Z " fill="#310000" transform="translate(336,127)"/>
<path d="M0 0 C0 0.66 0 1.32 0 2 C-0.99 2 -1.98 2 -3 2 C-3 2.66 -3 3.32 -3 4 C-7.15267176 7.11450382 -7.15267176 7.11450382 -10.3125 6.6875 C-10.869375 6.460625 -11.42625 6.23375 -12 6 C-8.93882432 3.37613513 -8.26826873 3 -4 3 C-4 2.34 -4 1.68 -4 1 C-2 0 -2 0 0 0 Z " fill="#310001" transform="translate(166,99)"/>
<path d="M0 0 C1.93681161 -0.08107583 3.8745934 -0.13922475 5.8125 -0.1875 C6.89144531 -0.22230469 7.97039062 -0.25710938 9.08203125 -0.29296875 C12 0 12 0 13.88671875 1.51171875 C14.25410156 2.00285156 14.62148437 2.49398438 15 3 C4.44191344 2.03644647 4.44191344 2.03644647 0 1 C0 0.67 0 0.34 0 0 Z " fill="#770605" transform="translate(208,479)"/>
<path d="M0 0 C0.66 0.33 1.32 0.66 2 1 C-0.97 3.97 -3.94 6.94 -7 10 C-7 6.78465943 -6.73523928 5.64417414 -5 3 C-2.5 1.1875 -2.5 1.1875 0 0 Z " fill="#8A0607" transform="translate(414,413)"/>
<path d="M0 0 C3.72433382 1.2125738 7.37802806 2.50859979 11 4 C11 4.66 11 5.32 11 6 C11.99 6.33 12.98 6.66 14 7 C10.80503044 6.50078601 7.8017192 5.67334239 4.75 4.625 C4.06421875 4.39039063 3.3784375 4.15578125 2.671875 3.9140625 C1 3 1 3 0 0 Z " fill="#8E070A" transform="translate(179,408)"/>
<path d="M0 0 C0.33 0.99 0.66 1.98 1 3 C-0.98 3.99 -0.98 3.99 -3 5 C-3 5.66 -3 6.32 -3 7 C-4.65 7.33 -6.3 7.66 -8 8 C-5.58443874 4.80800833 -3.31996462 2.25283313 0 0 Z " fill="#2C0000" transform="translate(118,134)"/>
<path d="M0 0 C0.33 0 0.66 0 1 0 C1.45732667 5.71658336 0.52273754 8.48649253 -3 13 C-4 11 -4 11 -3.22265625 8.3984375 C-2.83980469 7.40070312 -2.45695313 6.40296875 -2.0625 5.375 C-1.68222656 4.37210938 -1.30195313 3.36921875 -0.91015625 2.3359375 C-0.60980469 1.56507812 -0.30945313 0.79421875 0 0 Z " fill="#2B0000" transform="translate(220,53)"/>
<path d="M0 0 C5.27749285 0.53851968 9.25645564 1.77343836 14 4 C10.30962722 5.37095624 8.29116165 4.60010967 4.75 3.0625 C3.85796875 2.68222656 2.9659375 2.30195313 2.046875 1.91015625 C1.37140625 1.60980469 0.6959375 1.30945313 0 1 C0 0.67 0 0.34 0 0 Z " fill="#790808" transform="translate(160,465)"/>
<path d="M0 0 C0.99 0.2165625 0.99 0.2165625 2 0.4375 C5.65599551 1.12299916 9.30622195 1.56175515 13 2 C12.67 2.99 12.34 3.98 12 5 C10.37276701 4.54965877 8.74826336 4.08944646 7.125 3.625 C5.76761719 3.24214844 5.76761719 3.24214844 4.3828125 2.8515625 C2 2 2 2 0 0 Z " fill="#9C0708" transform="translate(176,393)"/>
<path d="M0 0 C-1.65 0.33 -3.3 0.66 -5 1 C-3.68 2.98 -2.36 4.96 -1 7 C-3.86697492 5.71480435 -5.97607712 4.42870746 -8 2 C-8 1.34 -8 0.68 -8 0 C-4.94736336 -0.98120464 -3.05263664 -0.98120464 0 0 Z " fill="#8C090B" transform="translate(144,365)"/>
<path d="M0 0 C4.29 1.32 8.58 2.64 13 4 C13 4.33 13 4.66 13 5 C9.04 4.67 5.08 4.34 1 4 C0.67 2.68 0.34 1.36 0 0 Z " fill="#250000" transform="translate(227,291)"/>
<path d="M0 0 C0 0.66 0 1.32 0 2 C-0.99 2.33 -1.98 2.66 -3 3 C-3.9590625 4.051875 -3.9590625 4.051875 -4.9375 5.125 C-5.618125 5.74375 -6.29875 6.3625 -7 7 C-9.12890625 6.6171875 -9.12890625 6.6171875 -11 6 C-9.54550599 4.9944239 -8.08627557 3.99569565 -6.625 3 C-5.40683594 2.1646875 -5.40683594 2.1646875 -4.1640625 1.3125 C-2 0 -2 0 0 0 Z " fill="#2F0000" transform="translate(323,380)"/>
<path d="M0 0 C4.19162145 0.95264124 5.7207791 1.63260408 8.375 5.125 C8.91125 6.07375 9.4475 7.0225 10 8 C6.88349604 6.49946106 3.86850702 4.93818042 1 3 C0.67 2.01 0.34 1.02 0 0 Z " fill="#8E0607" transform="translate(143,372)"/>
<path d="M0 0 C1.29608947 0.93137592 2.58671632 1.8703566 3.875 2.8125 C4.59429687 3.33457031 5.31359375 3.85664063 6.0546875 4.39453125 C8 6 8 6 10 9 C9.443125 8.71125 8.88625 8.4225 8.3125 8.125 C5.98947835 6.91932647 5.98947835 6.91932647 3.3125 6.1875 C2.549375 5.795625 1.78625 5.40375 1 5 C0.1875 2.375 0.1875 2.375 0 0 Z " fill="#270000" transform="translate(335,225)"/>
<path d="M0 0 C2.94678433 2.94678433 4.32041919 5.24093818 6 9 C6 9.66 6 10.32 6 11 C5.01 11 4.02 11 3 11 C2.01 7.37 1.02 3.74 0 0 Z " fill="#91070A" transform="translate(398,197)"/>
<path d="M0 0 C2.31 0.33 4.62 0.66 7 1 C7.66 2.65 8.32 4.3 9 6 C5.06326356 4.68775452 2.77280706 3.08089673 0 0 Z " fill="#330000" transform="translate(151,392)"/>
<path d="M0 0 C0 3 0 3 -2 5.1875 C-2.66 5.785625 -3.32 6.38375 -4 7 C-4.99 6.34 -5.98 5.68 -7 5 C-6.01 4.67 -5.02 4.34 -4 4 C-4 3.34 -4 2.68 -4 2 C-2.68 1.34 -1.36 0.68 0 0 Z " fill="#6E080E" transform="translate(442,380)"/>
<path d="M0 0 C3.53600465 1.91135386 5.78972846 3.62642766 8 7 C5.03 6.505 5.03 6.505 2 6 C2 4.68 2 3.36 2 2 C1.34 2 0.68 2 0 2 C0 1.34 0 0.68 0 0 Z " fill="#2F0000" transform="translate(368,254)"/>
<path d="M0 0 C2.125 0.375 2.125 0.375 4 1 C2.37660195 2.70884005 0.70680947 4.37446717 -1 6 C-1.66 6 -2.32 6 -3 6 C-2.42655063 3.13275314 -2.1385485 2.1385485 0 0 Z " fill="#9B0609" transform="translate(150,233)"/>
<path d="M0 0 C0.66 0.33 1.32 0.66 2 1 C0 4 0 4 -1.9453125 4.51171875 C-2.66460937 4.56972656 -3.38390625 4.62773438 -4.125 4.6875 C-6.043125 4.8421875 -6.043125 4.8421875 -8 5 C-5.31158141 2.74754119 -3.35358125 1.11786042 0 0 Z " fill="#290000" transform="translate(187,87)"/>
<path d="M0 0 C2.31 0.33 4.62 0.66 7 1 C7.33 1.99 7.66 2.98 8 4 C10.01508358 4.73323796 10.01508358 4.73323796 12 5 C11.01 5.495 11.01 5.495 10 6 C7.6171875 5.00390625 7.6171875 5.00390625 4.875 3.5625 C3.96492188 3.08941406 3.05484375 2.61632813 2.1171875 2.12890625 C1.41851562 1.75636719 0.71984375 1.38382813 0 1 C0 0.67 0 0.34 0 0 Z " fill="#310000" transform="translate(356,42)"/>
<path d="M0 0 C0.33 0.99 0.66 1.98 1 3 C-1.36292656 5.52588702 -2.66462511 6.88820837 -6 8 C-5.1875 6.0625 -5.1875 6.0625 -4 4 C-3.01 3.67 -2.02 3.34 -1 3 C-0.67 2.01 -0.34 1.02 0 0 Z " fill="#7E0407" transform="translate(140,133)"/>
<path d="M0 0 C2.64 0.33 5.28 0.66 8 1 C8 1.33 8 1.66 8 2 C6.35 2 4.7 2 3 2 C3 4.31 3 6.62 3 9 C2.67 9 2.34 9 2 9 C1.34 6.03 0.68 3.06 0 0 Z " fill="#94090D" transform="translate(298,113)"/>
<path d="M0 0 C1.32 0 2.64 0 4 0 C6 6.625 6 6.625 6 10 C4.99723227 8.52270825 3.99785546 7.04311423 3 5.5625 C2.443125 4.73878906 1.88625 3.91507812 1.3125 3.06640625 C0 1 0 1 0 0 Z " fill="#960809" transform="translate(377,104)"/>
<path d="M0 0 C1.8125 0.125 1.8125 0.125 4 1 C5.95320589 4.20883825 7 6.2205439 7 10 C5.83043409 8.52312468 4.66441854 7.04343707 3.5 5.5625 C2.8503125 4.73878906 2.200625 3.91507812 1.53125 3.06640625 C0 1 0 1 0 0 Z " fill="#8B090A" transform="translate(367,91)"/>
<path d="M0 0 C2.97 0 5.94 0 9 0 C9.33 0.99 9.66 1.98 10 3 C6.08393425 2.46599103 3.60661066 1.80330533 0 0 Z " fill="#300101" transform="translate(220,423)"/>
<path d="M0 0 C1.32 0 2.64 0 4 0 C4.0825 0.61875 4.165 1.2375 4.25 1.875 C4.81258459 4.18437567 4.81258459 4.18437567 7.0625 5.25 C7.701875 5.4975 8.34125 5.745 9 6 C4.58763974 6 3.21615077 3.9302707 0 1 C0 0.67 0 0.34 0 0 Z " fill="#3B0101" transform="translate(133,379)"/>
<path d="M0 0 C0.33 0 0.66 0 1 0 C1.36552803 1.41377782 1.71695495 2.83120576 2.0625 4.25 C2.25972656 5.03890625 2.45695312 5.8278125 2.66015625 6.640625 C3.01497267 9.10394822 2.76877544 10.65604132 2 13 C-0.20914 9.68629 -0.22481553 8.6553979 -0.125 4.8125 C-0.10695313 3.91144531 -0.08890625 3.01039063 -0.0703125 2.08203125 C-0.04710938 1.39496094 -0.02390625 0.70789063 0 0 Z " fill="#2C0101" transform="translate(101,253)"/>
<path d="M0 0 C3.1808342 2.12055614 4.31525278 3.63050557 6 7 C5.67 7.66 5.34 8.32 5 9 C2.5 6.75 2.5 6.75 0 4 C0 2.68 0 1.36 0 0 Z " fill="#350001" transform="translate(445,336)"/>
<path d="M0 0 C0.33 0 0.66 0 1 0 C1.17835515 4.54805635 0.99785435 7.8794254 -1 12 C-1.33 12 -1.66 12 -2 12 C-2.21278058 7.53160785 -1.59138085 4.17737474 0 0 Z " fill="#200000" transform="translate(103,203)"/>
<path d="M0 0 C0.33 0 0.66 0 1 0 C3.27678571 8.03571429 3.27678571 8.03571429 2 12 C-0.13586678 8.79619983 -0.23132175 7.98060033 -0.125 4.3125 C-0.10695313 3.50425781 -0.08890625 2.69601563 -0.0703125 1.86328125 C-0.04710937 1.24839844 -0.02390625 0.63351563 0 0 Z " fill="#2B0000" transform="translate(305,144)"/>
<path d="M0 0 C0.66 0.33 1.32 0.66 2 1 C-0.25 3.0625 -0.25 3.0625 -3 5 C-5.3125 4.75 -5.3125 4.75 -7 4 C-4.61426621 2.10786631 -2.92824652 0.97608217 0 0 Z " fill="#310000" transform="translate(177,92)"/>
<path d="M0 0 C-1 3 -1 3 -3.9375 4.75 C-5.4534375 5.36875 -5.4534375 5.36875 -7 6 C-7.66 5.67 -8.32 5.34 -9 5 C-7.87926138 4.16094435 -6.75325453 3.32892169 -5.625 2.5 C-4.99851562 2.0359375 -4.37203125 1.571875 -3.7265625 1.09375 C-2 0 -2 0 0 0 Z " fill="#730606" transform="translate(127,52)"/>
<path d="M0 0 C2.64 0.33 5.28 0.66 8 1 C8 1.99 8 2.98 8 4 C2.25 2.25 2.25 2.25 0 0 Z " fill="#9D0705" transform="translate(164,387)"/>
<path d="M0 0 C0.33 0.99 0.66 1.98 1 3 C-0.3125 5.1875 -0.3125 5.1875 -2 7 C-2.66 7 -3.32 7 -4 7 C-4 7.66 -4 8.32 -4 9 C-4.66 8.67 -5.32 8.34 -6 8 C-4.02 5.36 -2.04 2.72 0 0 Z " fill="#330101" transform="translate(344,360)"/>
<path d="M0 0 C4.95 0.99 4.95 0.99 10 2 C6 4 6 4 3 4 C2.01 2.68 1.02 1.36 0 0 Z " fill="#A80807" transform="translate(314,352)"/>
<path d="M0 0 C0 3 0 3 -2.5 5.6875 C-3.325 6.450625 -4.15 7.21375 -5 8 C-5.66 7.67 -6.32 7.34 -7 7 C-4.69 4.69 -2.38 2.38 0 0 Z " fill="#2B0000" transform="translate(287,278)"/>
<path d="M0 0 C1.32 0.66 2.64 1.32 4 2 C1.03 4.475 1.03 4.475 -2 7 C-2 6.01 -2 5.02 -2 4 C-1.34 4 -0.68 4 0 4 C-0.33 3.01 -0.66 2.02 -1 1 C-0.67 0.67 -0.34 0.34 0 0 Z " fill="#960607" transform="translate(115,132)"/>
<path d="M0 0 C0.66 0.33 1.32 0.66 2 1 C0.35 2.65 -1.3 4.3 -3 6 C-3.66 5.34 -4.32 4.68 -5 4 C-3.35 2.68 -1.7 1.36 0 0 Z " fill="#330001" transform="translate(152,106)"/>
<path d="M0 0 C0.33 0 0.66 0 1 0 C1.36923077 6.52307692 1.36923077 6.52307692 -0.5 8.9375 C-0.995 9.288125 -1.49 9.63875 -2 10 C-1.125 2.25 -1.125 2.25 0 0 Z " fill="#330000" transform="translate(206,96)"/>
<path d="M0 0 C0.33 0.99 0.66 1.98 1 3 C-0.65 4.65 -2.3 6.3 -4 8 C-4.66 7.67 -5.32 7.34 -6 7 C-4.02 4.69 -2.04 2.38 0 0 Z " fill="#494949" transform="translate(61,85)"/>
</svg>
